<?xml version="1.0" encoding="utf-8"?>
<!-- Generator: Adobe Illustrator 16.0.0, SVG Export Plug-In . SVG Version: 6.00 Build 0)  -->
<!DOCTYPE svg PUBLIC "-//W3C//DTD SVG 1.1//EN" "http://www.w3.org/Graphics/SVG/1.1/DTD/svg11.dtd">
<svg version="1.1" id="Layer_1" xmlns="http://www.w3.org/2000/svg" xmlns:xlink="http://www.w3.org/1999/xlink" x="0px" y="0px"
	 width="8px" height="15px" viewBox="0 0 8 15" enable-background="new 0 0 8 15" xml:space="preserve">
<path fill="#515151" stroke="#515151" stroke-width="0.7" stroke-miterlimit="10" d="M7.66,7.458
	C7.656,7.639,7.557,7.735,7.441,7.827c-1.758,1.408-3.516,2.816-5.272,4.222c-0.432,0.348-0.866,0.689-1.294,1.041
	c-0.096,0.079-0.157,0.115-0.24-0.02c-0.093-0.152-0.296-0.291-0.294-0.435c0.002-0.147,0.24-0.239,0.376-0.349
	c1.938-1.553,3.876-3.107,5.819-4.653c0.18-0.143,0.146-0.202-0.009-0.325C4.51,5.699,2.498,4.083,0.481,2.473
	C0.34,2.36,0.295,2.294,0.433,2.133C0.75,1.76,0.739,1.75,1.127,2.061C3.229,3.745,5.33,5.429,7.434,7.113
	C7.552,7.21,7.66,7.307,7.66,7.458z"/>
</svg>
