<?xml version="1.0" encoding="utf-8"?>
<!-- Generator: Adobe Illustrator 16.0.0, SVG Export Plug-In . SVG Version: 6.00 Build 0)  -->
<!DOCTYPE svg PUBLIC "-//W3C//DTD SVG 1.1//EN" "http://www.w3.org/Graphics/SVG/1.1/DTD/svg11.dtd">
<svg version="1.1" id="Layer_1" xmlns="http://www.w3.org/2000/svg" xmlns:xlink="http://www.w3.org/1999/xlink" x="0px" y="0px"
	 width="20px" height="19px" viewBox="0 0 20 19" enable-background="new 0 0 20 19" xml:space="preserve">
<title></title>
<g opacity="0.3">
	<path d="M17.42,8.495L4.482,0.252C4.298,0.134,4.085,0.071,3.866,0.071C3.563,0.072,3.271,0.192,3.054,0.407
		C2.827,0.631,2.7,0.937,2.701,1.256v16.486c-0.001,0.32,0.126,0.627,0.353,0.852c0.217,0.213,0.509,0.334,0.813,0.336
		c0.219-0.002,0.432-0.066,0.616-0.182l12.938-8.244c0.553-0.359,0.713-1.1,0.354-1.655C17.682,8.708,17.561,8.587,17.42,8.495z
		 M16.938,9.746L4,17.988c-0.039,0.029-0.086,0.043-0.134,0.043c-0.068-0.002-0.135-0.029-0.182-0.078
		c-0.057-0.057-0.088-0.131-0.086-0.211V1.256C3.597,1.178,3.628,1.102,3.685,1.047C3.731,0.998,3.798,0.97,3.866,0.968
		c0.048,0,0.095,0.015,0.134,0.041l12.938,8.243c0.135,0.092,0.172,0.277,0.08,0.414C16.996,9.699,16.967,9.725,16.938,9.746z"/>
	<polyline points="3.549,0.666 17.299,9.5 3.549,18.543 	"/>
</g>
<path fill="#FFFFFF" d="M16.754,8.451L3.816,0.354C3.631,0.238,3.418,0.176,3.2,0.176c-0.304,0.001-0.596,0.119-0.813,0.33
	C2.161,0.727,2.034,1.027,2.035,1.34v16.195c-0.001,0.316,0.126,0.617,0.353,0.836c0.217,0.211,0.509,0.328,0.813,0.33
	c0.219,0,0.432-0.064,0.616-0.18l12.938-8.098c0.553-0.352,0.713-1.08,0.354-1.625C17.016,8.66,16.895,8.542,16.754,8.451z
	 M16.271,9.68L3.333,17.777c-0.039,0.029-0.086,0.041-0.134,0.041c-0.068,0-0.135-0.029-0.182-0.076
	c-0.057-0.055-0.088-0.129-0.086-0.207V1.34C2.93,1.264,2.961,1.189,3.018,1.135C3.065,1.086,3.131,1.059,3.2,1.058
	c0.048,0,0.095,0.015,0.134,0.04l12.938,8.098c0.135,0.091,0.172,0.273,0.08,0.407C16.33,9.634,16.301,9.659,16.271,9.68z"/>
<polyline fill="#FFFFFF" points="2.708,0.635 17.328,9.519 2.708,18.614 "/>
</svg>
