<?xml version="1.0" encoding="utf-8"?>
<!-- Generator: Adobe Illustrator 16.0.0, SVG Export Plug-In . SVG Version: 6.00 Build 0)  -->
<!DOCTYPE svg PUBLIC "-//W3C//DTD SVG 1.1//EN" "http://www.w3.org/Graphics/SVG/1.1/DTD/svg11.dtd">
<svg version="1.1" id="Layer_1" xmlns="http://www.w3.org/2000/svg" xmlns:xlink="http://www.w3.org/1999/xlink" x="0px" y="0px"
	 width="40px" height="40px" viewBox="-34.25 0.875 40 40" enable-background="new -34.25 0.875 40 40" xml:space="preserve">
<g>
	<path fill="#05AAE2" d="M-11.574,11.778c0.04-0.714,0.365-1.023,1.081-1.023c0.275,0,0.549-0.001,0.823,0
		c0.563,0.004,0.942,0.383,0.945,0.942c0.001,0.399,0.006,0.798-0.003,1.196c-0.003,0.138,0.04,0.169,0.172,0.168
		c0.72-0.005,1.44-0.011,2.161,0c1.011,0.017,1.855,0.707,2.088,1.692c0.043,0.181,0.056,0.366,0.056,0.552
		c0,4.367,0.001,8.734,0,13.102c0,1.172-0.664,2.044-1.741,2.285c-0.172,0.038-0.354,0.053-0.531,0.053
		c-5.158,0.003-10.316,0.004-15.474,0c-1.075-0.001-1.924-0.653-2.186-1.655c-0.047-0.182-0.067-0.364-0.067-0.551
		c0-4.422-0.002-8.845,0.001-13.266c0.001-0.992,0.572-1.797,1.474-2.115c0.263-0.092,0.535-0.117,0.81-0.117
		c0.673,0,1.345-0.005,2.017,0.005c0.158,0.002,0.194-0.043,0.189-0.195c-0.011-0.392-0.006-0.784-0.002-1.176
		c0.004-0.52,0.37-0.904,0.883-0.918c0.356-0.011,0.714-0.011,1.07-0.001c0.513,0.015,0.885,0.404,0.889,0.918
		c0.003,0.406,0.004,0.812,0.006,1.217c-0.042,0.205,0.091,0.158,0.202,0.141c0.191,0.018,0.382,0.021,0.573-0.001
		c0.083,0.022,0.167,0.022,0.25,0.001c0.192,0.018,0.382,0.021,0.573-0.001c0.083,0.022,0.167,0.022,0.251,0.001
		c0.19,0.018,0.381,0.021,0.572-0.001c0.083,0.022,0.167,0.022,0.251,0.001c0.191,0.018,0.382,0.021,0.573-0.001
		c0.083,0.022,0.167,0.022,0.25,0.001c0.19,0.018,0.381,0.021,0.572-0.001c0.083,0.022,0.166,0.022,0.249,0.001
		c0.192,0.018,0.383,0.021,0.574-0.001c0.083,0.022,0.167,0.022,0.25,0.001c0.222,0.066,0.224-0.066,0.2-0.222
		c-0.001-0.069-0.001-0.138-0.001-0.208c0-0.207,0-0.412,0.001-0.618C-11.574,11.916-11.574,11.847-11.574,11.778z M-23.002,18.999
		c0,0.069,0,0.138,0,0.208c0,0.206,0,0.412,0,0.618c0,0.069,0,0.138,0,0.207c0,0.207,0,0.412,0,0.618c0,0.069,0,0.138,0,0.208
		c0,0.206,0,0.412,0,0.618c0,0.069,0,0.138,0,0.208c0,1.306,0,2.613,0,3.918c0,0.069,0,0.138,0,0.208c0,0.206,0,0.412,0,0.618
		c0,0.069,0,0.138,0,0.208c-0.002,0.595,0.017,1.192-0.013,1.786c-0.035,0.71,0.499,1.187,1.158,1.094c0.069,0,0.138,0,0.207,0
		c0.206,0,0.411,0,0.616,0c0.069,0,0.138,0,0.207,0c0.206,0,0.411,0,0.617,0c0.069,0,0.137,0,0.206,0c0.206,0,0.411,0,0.617,0
		c0.069,0,0.138,0,0.207,0c0.206,0,0.411,0,0.617,0c0.069,0,0.138,0,0.207,0c0.205,0,0.411,0,0.616,0c0.069,0,0.138,0,0.208,0
		c0.205,0,0.41,0,0.616,0c0.069,0,0.138,0,0.207,0c0.206,0,0.411,0,0.617,0c0.069,0,0.138,0,0.207,0c0.206,0,0.411,0,0.617,0
		c0.069,0,0.138,0,0.207,0c0.205,0,0.41,0,0.615,0c0.069,0,0.138,0,0.208,0c0.205,0,0.41,0,0.616,0c0.069,0,0.138,0,0.207,0
		c0.206,0,0.411,0,0.616,0c0.069,0,0.138,0,0.207,0c0.206,0,0.411,0,0.617,0c0.069,0,0.138,0,0.207,0c0.206,0,0.411,0,0.616,0
		c0.069,0,0.138,0,0.207,0c0.206,0,0.411,0,0.616,0c0.069,0,0.138,0,0.207,0c0.206,0,0.411,0,0.617,0c0.069,0,0.137,0,0.206,0
		c0.206,0,0.411,0,0.617,0c0.069,0,0.138,0,0.207,0c0.205,0,0.411,0,0.616,0c0.069,0,0.138,0,0.207,0c0.205,0,0.411,0,0.616,0
		c0.069,0,0.138,0,0.207,0c0.144,0.003,0.288,0.01,0.43,0.006c0.477-0.014,0.873-0.393,0.902-0.869
		c0.009-0.15-0.005-0.3-0.008-0.451c0.02-0.068,0.021-0.137-0.002-0.205c0.022-0.207,0.021-0.413,0.001-0.62
		c0.021-0.069,0.021-0.137-0.001-0.205c0.022-0.207,0.021-0.414,0.001-0.621c0.021-0.068,0.021-0.137-0.001-0.205
		c0.022-0.207,0.021-0.414,0.001-0.62c0.021-0.068,0.021-0.137-0.001-0.205c0.022-0.206,0.02-0.414,0.002-0.62
		c0.021-0.083,0.021-0.167-0.001-0.25c0.021-0.191,0.02-0.384,0.001-0.576c0.021-0.083,0.021-0.167-0.001-0.249
		c0.021-0.192,0.02-0.384,0.001-0.577c0.021-0.083,0.021-0.166-0.001-0.249c0.021-0.192,0.02-0.384,0.001-0.576
		c0.021-0.083,0.021-0.166-0.002-0.249c0.021-0.192,0.021-0.384,0-0.576c0.021-0.069,0.021-0.137-0.001-0.206
		c0.022-0.206,0.02-0.413,0.002-0.62c0.021-0.083,0.021-0.166-0.001-0.249c0.021-0.192,0.02-0.384,0.001-0.577
		c0.021-0.083,0.021-0.166-0.001-0.249c0.021-0.192,0.02-0.384,0.001-0.577c0.021-0.083,0.021-0.166-0.001-0.249
		c0.021-0.192,0.02-0.384,0.001-0.577c-0.024-0.207-0.168-0.064-0.254-0.088c-0.192-0.018-0.384-0.019-0.576,0
		c-0.083-0.021-0.165-0.021-0.248,0c-0.192-0.018-0.384-0.019-0.575,0c-0.083-0.021-0.166-0.021-0.248,0
		c-0.191-0.018-0.383-0.019-0.575,0c-0.083-0.021-0.166-0.021-0.248,0c-0.208-0.004-0.418-0.049-0.623,0.023
		c-0.06-0.062-0.131-0.036-0.2-0.023c-0.192-0.018-0.384-0.02-0.576,0c-0.083-0.023-0.165-0.022-0.248-0.001
		c-0.192-0.018-0.383-0.019-0.575,0c-0.083-0.021-0.165-0.021-0.248,0c-0.191-0.018-0.383-0.019-0.575,0
		c-0.083-0.021-0.166-0.021-0.248,0c-0.192-0.018-0.384-0.019-0.576,0c-0.083-0.021-0.166-0.021-0.248,0
		c-0.191-0.018-0.383-0.019-0.575,0c-0.083-0.021-0.166-0.021-0.248,0c-0.207-0.018-0.412-0.021-0.618,0.002
		c-0.068-0.021-0.136-0.021-0.205-0.001c-0.192-0.02-0.383-0.02-0.576,0c-0.082-0.021-0.165-0.021-0.248,0
		c-0.191-0.018-0.383-0.019-0.574,0c-0.083-0.021-0.166-0.021-0.249,0c-0.191-0.018-0.383-0.019-0.575,0
		c-0.083-0.021-0.165-0.021-0.248,0c-0.192-0.018-0.383-0.019-0.575,0c-0.083-0.021-0.166-0.021-0.248,0
		c-0.192-0.018-0.383-0.019-0.575,0c-0.083-0.021-0.166-0.021-0.249,0c-0.191-0.018-0.383-0.019-0.575,0
		c-0.083-0.021-0.166-0.021-0.248,0c-0.207-0.018-0.413-0.021-0.619,0.002c-0.068-0.021-0.136-0.021-0.205-0.001
		c-0.192-0.02-0.383-0.02-0.575,0c-0.083-0.021-0.165-0.021-0.248,0c-0.192-0.018-0.383-0.019-0.576,0
		c-0.083-0.021-0.165-0.021-0.247,0c-0.192-0.018-0.383-0.019-0.576,0c-0.083-0.021-0.165-0.021-0.248,0
		c-0.192-0.018-0.383-0.019-0.575,0c-0.153-0.044-0.245-0.016-0.2,0.171C-23.002,18.587-23.002,18.793-23.002,18.999z"/>
	<path fill="#05AAE2" d="M-19.058,20.109c0.068,0,0.137,0,0.206,0c0.206,0,0.412,0,0.617,0c0.066,0.009,0.13,0.02,0.196,0.029
		c0.136,0.046,0.239,0.138,0.329,0.247c0.017,0.033,0.033,0.066,0.05,0.101c0.012,0.178,0.024,0.357,0.037,0.536
		c-0.02,0.083-0.02,0.166,0,0.249c-0.019,0.192-0.018,0.384,0,0.577c-0.018,0.068-0.019,0.137,0.001,0.205
		c-0.038,0.237,0.036,0.491-0.107,0.712c-0.061,0.058-0.121,0.116-0.183,0.174c-0.207,0.117-0.437,0.047-0.653,0.081
		c-0.083,0-0.166,0-0.249-0.001c-0.191,0-0.383,0-0.575,0.001c-0.083,0-0.166,0-0.248-0.001c-0.191,0-0.383,0-0.575,0.001
		c-0.083,0-0.165,0-0.248-0.001c-0.464-0.042-0.629-0.224-0.631-0.702c-0.002-0.507,0.009-1.014-0.004-1.521
		c-0.006-0.29,0.093-0.504,0.347-0.644c0.083-0.014,0.165-0.028,0.248-0.042c0.206,0,0.411,0,0.617,0c0.069,0,0.138,0,0.207,0
		C-19.469,20.11-19.264,20.109-19.058,20.109z"/>
	<path fill="#05AAE2" d="M-19.921,27.671c-0.069-0.001-0.138-0.001-0.207-0.001c-0.123-0.002-0.246-0.005-0.368-0.007
		c-0.358-0.008-0.587-0.232-0.591-0.594c-0.005-0.555-0.005-1.111-0.001-1.665c0.003-0.422,0.203-0.619,0.631-0.634
		c0.027,0,0.054-0.006,0.081-0.008c0.069,0,0.138,0,0.208,0.001c0.191,0,0.382,0,0.574,0c0.083,0,0.166,0.001,0.25,0.001
		c0.205,0,0.41-0.001,0.615-0.002c0.069,0,0.138,0.001,0.208,0.001c0.082,0.002,0.164,0.011,0.246,0.007
		c0.314-0.016,0.521,0.126,0.627,0.419c0.01,0.055,0.02,0.11,0.029,0.166c-0.021,0.207-0.019,0.413-0.001,0.62
		c-0.019,0.069-0.019,0.137,0.001,0.206c-0.021,0.207-0.019,0.413-0.001,0.62c-0.019,0.069-0.019,0.137,0.001,0.206
		c-0.061,0.476-0.212,0.63-0.656,0.666c-0.068,0-0.137,0-0.206,0c-0.206,0-0.412,0-0.616,0.001
		c-0.069-0.001-0.138-0.001-0.207-0.001C-19.511,27.67-19.716,27.67-19.921,27.671z"/>
	<path fill="#05AAE2" d="M-7.323,21.434c0,0.069,0,0.137,0.001,0.207c0,0.207-0.001,0.413-0.001,0.618c0,0.069,0,0.138,0,0.207
		c-0.048,0.313-0.222,0.503-0.54,0.552c-0.083,0-0.167,0-0.249,0c-0.192,0.001-0.383,0.001-0.574,0.001
		c-0.083,0-0.167,0-0.249-0.001c-0.191,0.001-0.382,0.001-0.574,0.001c-0.083,0-0.167,0-0.25-0.001
		c-0.191-0.002-0.383-0.006-0.574-0.008c-0.055-0.019-0.108-0.037-0.163-0.056c-0.092-0.07-0.173-0.151-0.239-0.246
		c-0.019-0.053-0.037-0.106-0.056-0.161c-0.001-0.206-0.002-0.412-0.004-0.618c0-0.069-0.001-0.138-0.001-0.208
		c0-0.206,0.001-0.412,0.001-0.617c-0.014-0.056-0.027-0.111-0.041-0.167c0.01-0.113,0.018-0.225,0.049-0.337
		c0.088-0.32,0.281-0.479,0.618-0.485c0.054,0,0.108-0.005,0.163-0.007c0.069,0,0.138,0,0.206,0c0.206,0,0.412,0,0.617,0
		c0.069,0,0.138,0,0.207,0c0.205,0,0.411,0,0.617,0c0.069,0,0.137,0,0.207,0c0.163,0.012,0.328-0.003,0.488,0.048
		c0.056,0.04,0.114,0.08,0.17,0.12c0.079,0.099,0.132,0.21,0.167,0.331c0.001,0.069,0.002,0.138,0.004,0.207
		C-7.323,21.022-7.323,21.228-7.323,21.434z"/>
	<path fill="#05AAE2" d="M-14.942,20.109c0.069,0,0.137,0,0.206,0c0.206,0,0.411,0,0.617,0c0.069,0,0.138,0,0.206,0
		c0.206,0,0.412,0,0.617,0c0.069,0,0.138,0,0.207,0c0.146,0.005,0.276,0.061,0.399,0.133c0.044,0.055,0.089,0.109,0.134,0.164
		c0.06,0.13,0.056,0.272,0.075,0.41c-0.022,0.083-0.022,0.166,0.001,0.249c-0.021,0.192-0.02,0.384-0.001,0.577
		c-0.016,0.07-0.036,0.14,0.015,0.205c-0.054,0.204-0.024,0.411-0.016,0.617c-0.021,0.078-0.042,0.155-0.063,0.233l0,0.001
		c-0.018,0.032-0.036,0.064-0.054,0.097c-0.041,0.04-0.082,0.08-0.123,0.12c-0.104,0.044-0.205,0.093-0.32,0.102
		c-0.193,0.001-0.385,0.002-0.579,0.002c-0.084,0-0.168,0-0.253-0.001c-0.191,0.001-0.382,0.001-0.574,0.001
		c-0.083,0-0.166,0-0.249-0.001c-0.191,0.001-0.382,0.001-0.574,0.001c-0.069-0.003-0.138-0.006-0.208-0.009
		c-0.352-0.119-0.465-0.277-0.471-0.648c-0.001-0.061-0.008-0.122-0.013-0.183c0.021-0.07,0.022-0.14-0.001-0.21
		c0.025-0.205,0.02-0.41,0.003-0.615c0.023-0.084,0.023-0.168-0.001-0.253c0.009-0.191,0.017-0.383,0.026-0.574
		c0.073-0.176,0.189-0.311,0.371-0.383C-15.359,20.089-15.149,20.136-14.942,20.109z"/>
	<path fill="#05AAE2" d="M-9.221,27.671C-9.29,27.67-9.358,27.67-9.427,27.67c-0.206,0-0.412,0-0.617,0.001
		c-0.069-0.001-0.138-0.001-0.207-0.001c-0.141-0.022-0.264-0.082-0.376-0.168c-0.024-0.028-0.049-0.057-0.073-0.085
		c-0.095-0.167-0.086-0.353-0.093-0.535c0-0.069,0-0.138-0.001-0.207c0.001-0.206,0.001-0.412,0.001-0.618
		c0-0.069,0-0.138-0.001-0.207c0.002-0.206,0.005-0.413,0.006-0.619c0.08-0.249,0.236-0.416,0.5-0.463
		c0.188-0.002,0.376-0.004,0.564-0.006c0.085,0,0.17,0.001,0.255,0.001c0.205,0,0.411-0.001,0.616-0.001
		c0.069,0,0.138,0,0.207,0.001c0.192,0,0.383-0.001,0.575-0.001c0.083,0.002,0.166,0.005,0.248,0.007
		c0.142,0.023,0.254,0.104,0.363,0.191c0.026,0.041,0.054,0.083,0.08,0.124c0.059,0.154,0.044,0.318,0.055,0.478
		c0,0.069,0.001,0.138,0.001,0.207c0,0.207-0.001,0.412-0.001,0.618c0,0.069,0.001,0.138,0.001,0.207
		c-0.003,0.207-0.006,0.413-0.009,0.619c-0.075,0.225-0.226,0.375-0.45,0.451c-0.205,0.003-0.412,0.006-0.617,0.009
		c-0.069,0-0.138,0-0.207-0.001C-8.81,27.67-9.016,27.67-9.221,27.671z"/>
	<path fill="#05AAE2" d="M-14.983,27.671c-0.069-0.001-0.138-0.001-0.207-0.001c-0.147-0.008-0.297-0.004-0.44-0.053
		c-0.057-0.042-0.115-0.084-0.172-0.126c-0.075-0.11-0.135-0.227-0.149-0.362c0-0.083,0-0.167,0-0.249c0-0.192,0-0.384,0-0.576
		c0-0.083,0-0.167,0-0.25c-0.003-0.192-0.006-0.383-0.01-0.574c0.005-0.084,0.011-0.167,0.017-0.25
		c0.07-0.264,0.24-0.418,0.507-0.466c0.069,0,0.139-0.001,0.208-0.002c0.205,0,0.411-0.001,0.615-0.001
		c0.07,0,0.139,0.001,0.208,0.001c0.191,0,0.383-0.001,0.574-0.001c0.083,0,0.167,0,0.249,0.001c0.191,0,0.382,0.001,0.574,0.002
		c0.069,0.018,0.138,0.036,0.207,0.054c0.077,0.072,0.153,0.143,0.23,0.214c0.022,0.053,0.044,0.106,0.066,0.158
		c0.008,0.193,0.016,0.386,0.024,0.579c-0.022,0.083-0.022,0.166,0,0.249c-0.021,0.191-0.02,0.384,0,0.577
		c-0.022,0.083-0.022,0.166,0,0.248c0.005,0.719-0.286,0.852-0.856,0.829c-0.069,0-0.138-0.001-0.207-0.001
		c-0.206,0-0.411,0.001-0.617,0.001c-0.069,0-0.138-0.001-0.207-0.001C-14.572,27.67-14.777,27.67-14.983,27.671z"/>
</g>
</svg>
