<?xml version="1.0" encoding="utf-8"?>
<!-- Generator: Adobe Illustrator 16.0.0, SVG Export Plug-In . SVG Version: 6.00 Build 0)  -->
<!DOCTYPE svg PUBLIC "-//W3C//DTD SVG 1.1//EN" "http://www.w3.org/Graphics/SVG/1.1/DTD/svg11.dtd">
<svg version="1.1" id="Layer_1" xmlns="http://www.w3.org/2000/svg" xmlns:xlink="http://www.w3.org/1999/xlink" x="0px" y="0px"
	 width="40px" height="40px" viewBox="-34.25 0.875 40 40" enable-background="new -34.25 0.875 40 40" xml:space="preserve">
<path fill="#05AAE2" d="M-18.361,20.801c-0.063-0.12-0.115-0.218-0.171-0.316c-0.875-1.516-1.754-3.031-2.623-4.55
	c-0.451-0.788-0.389-1.647,0.14-2.313c0.419-0.527,0.963-0.762,1.604-0.542c0.545,0.189,1.094,0.42,1.576,0.732
	c2.39,1.548,4.757,3.126,7.128,4.702c0.201,0.133,0.375,0.16,0.607,0.097c2.705-0.731,5.411-1.454,8.118-2.175
	c1.418-0.377,2.796,0.189,3.481,1.424c0.673,1.21,0.432,2.72-0.588,3.665c-0.381,0.354-0.831,0.579-1.336,0.713
	c-7.545,2.019-15.09,4.041-22.635,6.061c-0.523,0.139-1.044,0.288-1.572,0.406c-0.787,0.177-1.491-0.128-1.895-0.824
	c-1.135-1.955-2.258-3.918-3.396-5.873c-0.318-0.545-0.272-1.566,0.208-2.045c0.366-0.366,0.787-0.552,1.271-0.381
	c0.495,0.176,0.988,0.396,1.434,0.672c0.983,0.609,1.934,1.271,2.905,1.9c0.106,0.069,0.275,0.115,0.392,0.085
	c1.733-0.453,3.463-0.918,5.193-1.382C-18.474,20.844-18.429,20.824-18.361,20.801z"/>
</svg>
