<?xml version="1.0" encoding="utf-8"?>
<!-- Generator: Adobe Illustrator 16.0.0, SVG Export Plug-In . SVG Version: 6.00 Build 0)  -->
<!DOCTYPE svg PUBLIC "-//W3C//DTD SVG 1.1//EN" "http://www.w3.org/Graphics/SVG/1.1/DTD/svg11.dtd">
<svg version="1.1" id="Layer_1" xmlns="http://www.w3.org/2000/svg" xmlns:xlink="http://www.w3.org/1999/xlink" x="0px" y="0px"
	 width="27px" height="28px" viewBox="0 0 27 28" enable-background="new 0 0 27 28" xml:space="preserve">
<ellipse fill="#F19600" cx="13.5" cy="14" rx="13.5" ry="14"/>
<g>
	<path fill="#FFFFFF" d="M22.575,10.806c0.079,1.055-0.095,2.318-0.765,2.379c-1.097,0.102-0.525-1.15-0.512-1.903
		c0.041-2.184-1.757-3.701-3.52-3.701c-0.498,0-1.655,0.351-1.479-0.74c0.082-0.481,0.475-0.474,0.868-0.529
		C20.131,5.902,22.366,8.015,22.575,10.806L22.575,10.806z M17.73,13.344c1.272,0.722,2.804,1.082,2.549,3.227
		c-0.062,0.514-0.36,1.199-0.662,1.638c-2.152,3.125-8.643,4.438-12.696,2.063c-1.36-0.799-2.766-1.963-2.549-4.285
		c0.187-1.997,1.482-3.545,2.753-4.863c1.213-1.258,2.492-2.243,4.232-2.697c1.888-0.492,2.446,1.14,1.938,2.75
		c1.094-0.077,3.411-1.342,4.436-0.106C18.184,11.616,18.009,12.591,17.73,13.344L17.73,13.344z M16.354,18.42
		c0.408-0.479,0.817-1.211,0.815-2.061c-0.005-2.629-3.198-3.601-5.711-3.385c-1.374,0.117-2.299,0.418-3.263,1.004
		c-0.787,0.479-1.708,1.26-1.938,2.433c-0.515,2.638,2.251,3.878,4.283,4.019C12.889,20.594,15.238,19.734,16.354,18.42z
		 M20.076,10.806c0.105,0.806-0.116,1.503-0.561,1.534c-0.742,0.051-0.466-0.527-0.511-1.216c-0.028-0.424-0.368-0.914-0.664-1.058
		c-0.579-0.281-1.479,0.206-1.479-0.634c0-0.624,0.522-0.558,0.818-0.582C18.971,8.748,19.927,9.67,20.076,10.806z M14.109,16.095
		c1.088,3.404-4.572,4.987-5.608,2.063c-0.692-1.956,0.971-3.515,2.703-3.701C12.683,14.294,13.785,15.076,14.109,16.095z
		 M11.51,16.676c0.231,0.414,0.761,0.116,0.714-0.211C12.168,16.086,11.506,16.143,11.51,16.676z M10.592,18.475
		c0.952-0.235,1.08-2.095-0.356-1.744C9.028,17.021,9.262,18.802,10.592,18.475z"/>
</g>
<g>
	<ellipse fill="#2A5C83" cx="42.875" cy="14" rx="13.5" ry="14"/>
	<path id="Instagram_1_" fill="#FFFFFF" d="M48.208,6.746H37.543c-0.919,0-1.663,0.771-1.663,1.721v11.068
		c0,0.949,0.744,1.721,1.663,1.721h10.665c0.918,0,1.662-0.771,1.662-1.721V8.467C49.87,7.517,49.126,6.746,48.208,6.746z
		 M45.936,9.014c0-0.251,0.196-0.454,0.438-0.454h1.312c0.241,0,0.438,0.203,0.438,0.454v1.36c0,0.25-0.196,0.453-0.438,0.453
		h-1.312c-0.241,0-0.438-0.203-0.438-0.453V9.014z M42.891,11.234c1.486,0,2.691,1.246,2.691,2.783s-1.205,2.785-2.691,2.785
		c-1.485,0-2.689-1.248-2.689-2.785S41.405,11.234,42.891,11.234z M48.56,19.441c0,0.25-0.196,0.453-0.438,0.453H37.629
		c-0.242,0-0.438-0.203-0.438-0.453v-6.801h1.749c-0.228,0.34-0.305,0.975-0.305,1.377c0,2.428,1.909,4.404,4.255,4.404
		c2.348,0,4.257-1.977,4.257-4.404c0-0.402-0.055-1.027-0.337-1.377h1.749V19.441z"/>
</g>
</svg>
