<?xml version="1.0" encoding="utf-8"?>
<!-- Generator: Adobe Illustrator 16.0.0, SVG Export Plug-In . SVG Version: 6.00 Build 0)  -->
<!DOCTYPE svg PUBLIC "-//W3C//DTD SVG 1.1//EN" "http://www.w3.org/Graphics/SVG/1.1/DTD/svg11.dtd">
<svg version="1.1" id="Layer_1" xmlns="http://www.w3.org/2000/svg" xmlns:xlink="http://www.w3.org/1999/xlink" x="0px" y="0px"
	 width="20px" height="19px" viewBox="0 0 20 19" enable-background="new 0 0 20 19" xml:space="preserve">
<title></title>
<g opacity="0.3">
	<path d="M7.195,1.305H3.866c-0.688,0-1.247,0.622-1.247,1.389v14.828c0,0.769,0.559,1.39,1.247,1.39h3.329
		c0.689,0,1.248-0.621,1.248-1.39V2.693C8.443,1.927,7.885,1.305,7.195,1.305z M7.61,17.521c0,0.256-0.186,0.464-0.415,0.464H3.866
		c-0.23,0-0.416-0.208-0.416-0.464V2.693c0-0.255,0.186-0.463,0.416-0.463h3.329c0.229,0,0.415,0.208,0.415,0.463V17.521z"/>
	<rect x="3.23" y="2.108" width="4.448" height="16.108"/>
</g>
<g opacity="0.3">
	<path d="M17.181,1.305h-3.328c-0.69,0-1.25,0.622-1.25,1.389v14.828c0,0.769,0.56,1.39,1.25,1.39h3.328
		c0.688,0,1.246-0.621,1.246-1.39V2.693C18.428,1.927,17.869,1.305,17.181,1.305z M17.596,17.521c0,0.256-0.186,0.464-0.415,0.464
		h-3.328c-0.23,0-0.416-0.208-0.416-0.464V2.693c0-0.255,0.186-0.463,0.416-0.463h3.328c0.229,0,0.415,0.208,0.415,0.463V17.521z"/>
	<rect x="13.054" y="2.108" width="4.767" height="16.321"/>
</g>
<g>
	<path fill="#F15A23" d="M16.126,0.084h-3.329c-0.689,0-1.248,0.623-1.248,1.388v14.831c0,0.766,0.559,1.387,1.248,1.387h3.329
		c0.688,0,1.246-0.621,1.246-1.387V1.472C17.372,0.707,16.813,0.084,16.126,0.084z M16.54,16.304c0,0.253-0.186,0.463-0.415,0.463
		h-3.329c-0.229,0-0.415-0.21-0.415-0.463V1.472c0-0.254,0.186-0.462,0.415-0.462h3.329c0.229,0,0.415,0.208,0.415,0.462V16.304z"/>
	<rect x="11.998" y="0.887" fill="#F15A23" width="4.768" height="16.323"/>
</g>
<g>
	<path fill="#F15A23" d="M6.242,0.084H2.913c-0.69,0-1.249,0.623-1.249,1.388v14.831c0,0.766,0.559,1.387,1.249,1.387h3.329
		c0.688,0,1.246-0.621,1.246-1.387V1.472C7.488,0.707,6.929,0.084,6.242,0.084z M6.656,16.304c0,0.253-0.186,0.463-0.415,0.463
		H2.913c-0.229,0-0.415-0.21-0.415-0.463V1.472c0-0.254,0.186-0.462,0.415-0.462h3.329c0.229,0,0.415,0.208,0.415,0.462
		L6.656,16.304L6.656,16.304z"/>
	<rect x="2.113" y="0.887" fill="#F15A23" width="4.768" height="16.323"/>
</g>
</svg>
