<?xml version="1.0" encoding="utf-8"?>
<!-- Generator: Adobe Illustrator 16.0.0, SVG Export Plug-In . SVG Version: 6.00 Build 0)  -->
<!DOCTYPE svg PUBLIC "-//W3C//DTD SVG 1.1//EN" "http://www.w3.org/Graphics/SVG/1.1/DTD/svg11.dtd">
<svg version="1.1" id="Layer_1" xmlns="http://www.w3.org/2000/svg" xmlns:xlink="http://www.w3.org/1999/xlink" x="0px" y="0px"
	 width="60px" height="60px" viewBox="0 0 60 60" enable-background="new 0 0 60 60" xml:space="preserve">
<path fill-rule="evenodd" clip-rule="evenodd" fill="#05AAE2" d="M22.254,28.188c-0.117-0.218-0.21-0.398-0.313-0.577
	c-1.6-2.772-3.207-5.542-4.797-8.32c-0.824-1.44-0.712-3.012,0.256-4.23c0.766-0.964,1.76-1.393,2.933-0.991
	c0.998,0.345,2.001,0.768,2.883,1.338c4.369,2.83,8.698,5.716,13.033,8.597c0.367,0.244,0.684,0.293,1.111,0.178
	c4.944-1.337,9.893-2.659,14.842-3.978c2.594-0.689,5.115,0.347,6.366,2.604c1.231,2.213,0.789,4.973-1.075,6.701
	c-0.697,0.648-1.521,1.059-2.443,1.305c-13.796,3.691-27.593,7.387-41.39,11.081c-0.957,0.255-1.91,0.526-2.875,0.743
	c-1.438,0.324-2.726-0.234-3.464-1.506c-2.076-3.574-4.129-7.165-6.211-10.738c-0.581-0.997-0.498-2.864,0.382-3.74
	c0.67-0.669,1.438-1.01,2.324-0.696c0.906,0.322,1.806,0.725,2.622,1.229c1.797,1.114,3.536,2.325,5.312,3.474
	c0.195,0.127,0.503,0.211,0.716,0.156c3.17-0.827,6.333-1.679,9.497-2.526C22.048,28.268,22.13,28.231,22.254,28.188z"/>
</svg>
