<?xml version="1.0" encoding="utf-8"?>
<!-- Generator: Adobe Illustrator 16.0.0, SVG Export Plug-In . SVG Version: 6.00 Build 0)  -->
<!DOCTYPE svg PUBLIC "-//W3C//DTD SVG 1.1//EN" "http://www.w3.org/Graphics/SVG/1.1/DTD/svg11.dtd">
<svg version="1.1" id="Layer_1" xmlns="http://www.w3.org/2000/svg" xmlns:xlink="http://www.w3.org/1999/xlink" x="0px" y="0px"
	 width="60px" height="60px" viewBox="0 0 60 60" enable-background="new 0 0 60 60" xml:space="preserve">
<g>
	<path fill-rule="evenodd" clip-rule="evenodd" fill="#05AAE2" d="M36.98,7.334c0.103-1.859,0.952-2.661,2.821-2.662
		c0.716,0,1.431-0.004,2.147,0.001c1.468,0.01,2.459,0.996,2.466,2.452c0.005,1.039,0.018,2.077-0.007,3.113
		c-0.009,0.36,0.105,0.441,0.448,0.439c1.879-0.014,3.759-0.028,5.638,0.001c2.638,0.043,4.841,1.84,5.448,4.404
		c0.112,0.471,0.146,0.953,0.146,1.437c0,11.363,0.003,22.728,0,34.092c0,3.05-1.731,5.321-4.542,5.947
		c-0.45,0.1-0.923,0.139-1.385,0.139c-13.458,0.006-26.915,0.01-40.373-0.001c-2.805-0.002-5.019-1.701-5.702-4.308
		c-0.123-0.471-0.175-0.947-0.175-1.434c0.001-11.507-0.005-23.014,0.004-34.52c0.002-2.583,1.493-4.678,3.846-5.504
		c0.685-0.24,1.394-0.305,2.112-0.304c1.755,0.001,3.508-0.014,5.262,0.012c0.413,0.006,0.506-0.113,0.495-0.507
		c-0.029-1.02-0.017-2.04-0.007-3.06c0.012-1.354,0.965-2.352,2.304-2.391c0.93-0.028,1.862-0.029,2.792-0.002
		c1.337,0.039,2.307,1.052,2.318,2.389c0.009,1.056,0.011,2.111,0.017,3.166c-0.109,0.532,0.236,0.41,0.526,0.366
		c0.499,0.047,0.996,0.053,1.494-0.004c0.217,0.059,0.436,0.057,0.654,0.004c0.499,0.047,0.996,0.053,1.494-0.004
		c0.217,0.059,0.436,0.057,0.654,0.004c0.498,0.047,0.996,0.053,1.494-0.004c0.218,0.059,0.436,0.057,0.654,0.004
		c0.498,0.047,0.996,0.053,1.494-0.004c0.218,0.059,0.436,0.057,0.654,0.004c0.497,0.047,0.995,0.053,1.493-0.004
		c0.217,0.058,0.434,0.057,0.65,0.004c0.5,0.046,0.999,0.053,1.497-0.004c0.217,0.059,0.435,0.057,0.651,0.004
		c0.579,0.172,0.583-0.172,0.52-0.578c-0.001-0.18-0.002-0.36-0.002-0.54c0-0.537,0.001-1.072,0.002-1.608
		C36.981,7.693,36.98,7.514,36.98,7.334z M7.163,26.125c0.001,0.18,0.001,0.359,0.002,0.539c-0.001,0.537-0.001,1.072-0.002,1.609
		c0.001,0.179,0.001,0.359,0.002,0.539c-0.001,0.537-0.001,1.072-0.002,1.609c0.001,0.18,0.001,0.359,0.002,0.539
		c-0.001,0.536-0.001,1.072-0.001,1.608c0,0.18,0.001,0.359,0.002,0.539c0,3.399-0.001,6.799-0.002,10.198
		c0,0.18,0.001,0.359,0.002,0.539c0,0.536-0.001,1.072-0.002,1.608c0,0.18,0.001,0.359,0.002,0.539
		c-0.006,1.55,0.043,3.102-0.034,4.647c-0.091,1.848,1.3,3.088,3.02,2.848c0.179,0,0.36,0,0.54,0.001
		c0.536-0.001,1.071-0.001,1.608-0.002c0.18,0.001,0.359,0.001,0.54,0.002c0.536-0.001,1.071-0.001,1.608-0.002
		c0.18,0.001,0.359,0.001,0.539,0.002c0.537-0.001,1.072-0.001,1.609-0.002c0.179,0.001,0.359,0.001,0.539,0.002
		c0.537-0.001,1.072-0.001,1.609-0.002c0.18,0.001,0.359,0.001,0.539,0.002c0.536-0.001,1.072-0.001,1.608-0.002
		c0.18,0.001,0.36,0.001,0.54,0.002c0.536-0.001,1.072-0.001,1.608-0.002c0.18,0.001,0.36,0.001,0.54,0.002
		c0.536-0.001,1.072-0.001,1.608-0.002c0.18,0.001,0.36,0.001,0.54,0.002c0.536-0.001,1.072-0.001,1.608-0.002
		c0.18,0.001,0.36,0.001,0.54,0.002c0.536-0.001,1.072-0.001,1.608-0.002c0.18,0.001,0.359,0.001,0.54,0.002
		c0.536-0.001,1.071-0.001,1.608-0.002c0.18,0.001,0.359,0.001,0.539,0.002c0.536-0.001,1.071-0.001,1.608-0.002
		c0.18,0.001,0.359,0.001,0.539,0.002c0.536-0.001,1.072-0.001,1.608-0.002c0.18,0.001,0.359,0.001,0.539,0.002
		c0.536-0.001,1.072-0.001,1.608-0.002c0.18,0.001,0.359,0.001,0.539,0.002c0.536-0.001,1.072-0.001,1.608-0.002
		c0.18,0.001,0.359,0.001,0.539,0.002c0.536-0.001,1.072-0.001,1.608-0.002c0.18,0.001,0.359,0.001,0.539,0.002
		c0.536-0.001,1.072-0.001,1.608-0.002c0.18,0.001,0.36,0.001,0.539,0.002c0.536-0.001,1.072-0.001,1.608-0.002
		c0.18,0.001,0.36,0.001,0.54,0.002c0.535-0.001,1.072-0.001,1.607-0.002c0.18,0.001,0.359,0.001,0.539,0.002
		c0.374,0.006,0.749,0.025,1.123,0.015c1.243-0.036,2.276-1.021,2.353-2.26c0.023-0.39-0.013-0.782-0.021-1.173
		c0.051-0.179,0.053-0.357-0.005-0.534c0.058-0.538,0.053-1.075,0.004-1.613c0.053-0.18,0.053-0.357-0.004-0.534
		c0.058-0.538,0.053-1.076,0.004-1.614c0.053-0.179,0.053-0.356-0.004-0.534c0.058-0.537,0.053-1.075,0.004-1.613
		c0.054-0.178,0.053-0.355-0.003-0.534c0.059-0.537,0.052-1.075,0.005-1.613c0.057-0.217,0.057-0.433-0.002-0.648
		c0.054-0.499,0.051-1,0.002-1.499c0.057-0.217,0.057-0.433-0.002-0.648c0.054-0.499,0.051-0.999,0.002-1.499
		c0.057-0.217,0.057-0.433-0.002-0.648c0.054-0.5,0.051-0.999,0.002-1.499c0.056-0.216,0.057-0.432-0.004-0.648
		c0.054-0.5,0.053-0.999,0.002-1.499c0.054-0.179,0.053-0.356-0.003-0.534c0.059-0.538,0.052-1.076,0.005-1.613
		c0.057-0.217,0.057-0.433-0.002-0.648c0.054-0.5,0.051-1,0.002-1.5c0.057-0.216,0.057-0.432-0.002-0.647
		c0.054-0.5,0.051-1,0.002-1.5c0.057-0.216,0.057-0.432-0.002-0.648c0.054-0.5,0.051-1,0.002-1.5
		c-0.061-0.538-0.437-0.168-0.662-0.23c-0.5-0.046-1.001-0.049-1.501,0.002c-0.215-0.057-0.431-0.057-0.646-0.002
		c-0.501-0.046-1.001-0.049-1.501,0.002c-0.215-0.057-0.431-0.057-0.646-0.002c-0.501-0.046-1-0.049-1.5,0.002
		c-0.217-0.057-0.433-0.057-0.648-0.002c-0.542-0.009-1.09-0.126-1.625,0.062c-0.157-0.162-0.342-0.095-0.521-0.061
		c-0.501-0.046-1.001-0.05-1.502,0.002c-0.215-0.059-0.431-0.057-0.646-0.003c-0.5-0.046-1-0.049-1.5,0.002
		c-0.216-0.057-0.432-0.057-0.647-0.002c-0.5-0.046-1-0.049-1.5,0.002c-0.216-0.057-0.432-0.057-0.646-0.002
		c-0.501-0.046-1.001-0.049-1.501,0.002c-0.216-0.057-0.432-0.057-0.647-0.002c-0.5-0.046-1-0.049-1.5,0.002
		c-0.216-0.057-0.432-0.057-0.647-0.002c-0.538-0.045-1.076-0.052-1.613,0.006c-0.178-0.055-0.356-0.055-0.534-0.004
		c-0.5-0.05-1-0.051-1.501,0c-0.215-0.057-0.431-0.057-0.646-0.002c-0.5-0.046-1-0.049-1.501,0.002
		c-0.215-0.057-0.431-0.057-0.647-0.002c-0.5-0.046-1-0.049-1.5,0.002c-0.215-0.057-0.431-0.057-0.647-0.002
		c-0.5-0.046-1-0.049-1.5,0.002c-0.216-0.057-0.432-0.057-0.647-0.002c-0.5-0.046-1-0.049-1.5,0.002
		c-0.215-0.057-0.431-0.057-0.648-0.002c-0.5-0.046-1-0.049-1.5,0.002c-0.215-0.057-0.431-0.057-0.646-0.002
		c-0.538-0.045-1.076-0.052-1.614,0.006c-0.178-0.055-0.356-0.055-0.535-0.004c-0.5-0.05-1-0.051-1.5,0
		c-0.216-0.057-0.431-0.057-0.647-0.002c-0.5-0.046-1-0.049-1.501,0.002c-0.215-0.057-0.431-0.057-0.646-0.002
		c-0.5-0.046-1-0.049-1.501,0.002c-0.215-0.057-0.431-0.057-0.647-0.002c-0.5-0.046-1-0.049-1.5,0.002
		c-0.4-0.116-0.64-0.043-0.523,0.446C7.165,25.053,7.164,25.589,7.163,26.125z"/>
	<path fill-rule="evenodd" clip-rule="evenodd" fill="#05AAE2" d="M17.455,29.013c0.179,0,0.358,0.001,0.538,0.002
		c0.537,0,1.073-0.001,1.609-0.002c0.171,0.025,0.34,0.051,0.511,0.077c0.356,0.121,0.623,0.36,0.859,0.642
		c0.044,0.086,0.087,0.173,0.132,0.261c0.031,0.465,0.063,0.931,0.096,1.396c-0.051,0.216-0.052,0.432,0.002,0.646
		c-0.049,0.5-0.048,1-0.001,1.502c-0.047,0.179-0.049,0.356,0.005,0.534c-0.099,0.617,0.093,1.277-0.281,1.853
		c-0.158,0.151-0.316,0.302-0.476,0.453c-0.539,0.304-1.139,0.123-1.704,0.21c-0.216-0.001-0.432-0.002-0.648-0.003
		c-0.5,0.001-1,0.002-1.5,0.003c-0.216-0.001-0.432-0.002-0.646-0.003c-0.5,0.002-1,0.002-1.501,0.003
		c-0.216-0.001-0.431-0.002-0.647-0.003c-1.211-0.109-1.642-0.582-1.646-1.826c-0.005-1.318,0.022-2.639-0.01-3.956
		c-0.017-0.755,0.244-1.312,0.905-1.676c0.215-0.037,0.43-0.073,0.645-0.11c0.537,0,1.073-0.001,1.61-0.002
		c0.179,0,0.358,0.001,0.538,0.002C16.381,29.015,16.918,29.014,17.455,29.013z"/>
	<path fill-rule="evenodd" clip-rule="evenodd" fill="#05AAE2" d="M15.201,48.691c-0.18-0.002-0.359-0.002-0.539-0.003
		c-0.321-0.007-0.642-0.012-0.961-0.019c-0.935-0.021-1.533-0.605-1.542-1.546c-0.013-1.445-0.012-2.89-0.002-4.333
		c0.008-1.098,0.531-1.61,1.647-1.65c0.071-0.002,0.141-0.015,0.211-0.021c0.18,0,0.361,0.001,0.541,0.002
		c0.499,0,0.998-0.001,1.498-0.001c0.217,0.001,0.434,0.003,0.652,0.003c0.535-0.001,1.07-0.004,1.604-0.005
		c0.181,0.001,0.361,0.002,0.542,0.003c0.213,0.007,0.428,0.029,0.64,0.019c0.82-0.041,1.357,0.33,1.637,1.093
		c0.025,0.143,0.05,0.286,0.076,0.43c-0.054,0.537-0.049,1.074-0.004,1.612c-0.048,0.179-0.049,0.357,0.004,0.535
		c-0.054,0.537-0.049,1.075-0.004,1.612c-0.048,0.179-0.049,0.357,0.004,0.535c-0.158,1.239-0.552,1.64-1.71,1.733
		c-0.179-0.001-0.358-0.001-0.538-0.002c-0.536,0.001-1.073,0.002-1.608,0.003c-0.18-0.001-0.359-0.002-0.539-0.003
		C16.273,48.689,15.737,48.69,15.201,48.691z"/>
	<path fill-rule="evenodd" clip-rule="evenodd" fill="#05AAE2" d="M48.07,32.461c0.001,0.18,0.002,0.358,0.003,0.538
		c-0.001,0.537-0.002,1.073-0.003,1.609c0.001,0.18,0.002,0.359,0.002,0.539c-0.126,0.815-0.579,1.309-1.408,1.435
		c-0.217,0-0.433,0-0.649,0.001c-0.499,0.002-0.999,0.003-1.498,0.003c-0.217,0-0.433-0.001-0.649-0.003
		c-0.499,0.002-0.998,0.003-1.497,0.003c-0.217,0-0.435-0.001-0.651-0.003c-0.499-0.007-0.999-0.014-1.498-0.021
		c-0.142-0.048-0.283-0.096-0.424-0.144c-0.239-0.184-0.45-0.393-0.623-0.64c-0.049-0.14-0.097-0.278-0.146-0.418
		c-0.003-0.536-0.006-1.072-0.01-1.608c0-0.18-0.001-0.36-0.002-0.54c0.001-0.536,0.002-1.072,0.002-1.607
		c-0.036-0.145-0.071-0.289-0.106-0.432c0.025-0.295,0.047-0.585,0.127-0.877c0.229-0.834,0.734-1.247,1.612-1.263
		c0.142-0.002,0.283-0.014,0.426-0.02c0.18,0,0.359,0.001,0.538,0.002c0.537,0,1.073-0.001,1.609-0.002
		c0.18,0,0.359,0.001,0.539,0.002c0.535,0,1.072-0.001,1.608-0.002c0.18,0,0.359,0.001,0.539,0.002
		c0.425,0.031,0.857-0.008,1.272,0.125c0.148,0.104,0.297,0.209,0.445,0.313c0.204,0.257,0.342,0.547,0.434,0.861
		c0.004,0.18,0.007,0.359,0.011,0.539C48.072,31.389,48.071,31.925,48.07,32.461z"/>
	<path fill-rule="evenodd" clip-rule="evenodd" fill="#05AAE2" d="M28.192,29.013c0.18,0,0.359,0.001,0.539,0.002
		c0.536,0,1.072-0.001,1.608-0.002c0.18,0,0.359,0.001,0.538,0.002c0.537,0,1.073-0.001,1.61-0.002c0.18,0,0.358,0.001,0.538,0.002
		c0.382,0.014,0.721,0.158,1.044,0.347c0.115,0.142,0.231,0.283,0.348,0.424c0.157,0.339,0.146,0.709,0.196,1.068
		c-0.058,0.216-0.058,0.431,0.003,0.646c-0.056,0.5-0.051,1.001-0.002,1.501c-0.041,0.182-0.095,0.363,0.038,0.532
		c-0.14,0.532-0.062,1.07-0.041,1.606c-0.055,0.202-0.109,0.404-0.162,0.606l-0.001,0.004c-0.048,0.084-0.095,0.168-0.142,0.253
		c-0.106,0.104-0.213,0.209-0.319,0.313c-0.27,0.115-0.536,0.241-0.834,0.266c-0.504,0.002-1.007,0.004-1.512,0.005
		c-0.22-0.001-0.439-0.001-0.66-0.003c-0.499,0.002-0.998,0.002-1.498,0.003c-0.217-0.001-0.433-0.001-0.65-0.003
		c-0.499,0.002-0.998,0.002-1.498,0.003c-0.181-0.008-0.36-0.016-0.541-0.023c-0.917-0.309-1.214-0.721-1.23-1.688
		c-0.002-0.158-0.021-0.316-0.032-0.476c0.056-0.183,0.058-0.365-0.005-0.547c0.067-0.533,0.053-1.067,0.009-1.601
		c0.061-0.219,0.061-0.438-0.002-0.657c0.022-0.498,0.045-0.996,0.067-1.494c0.192-0.459,0.495-0.81,0.968-0.996
		C27.104,28.961,27.653,29.083,28.192,29.013z"/>
	<path fill-rule="evenodd" clip-rule="evenodd" fill="#05AAE2" d="M43.119,48.691c-0.18-0.001-0.358-0.002-0.538-0.003
		c-0.537,0.001-1.073,0.002-1.609,0.003c-0.18-0.002-0.358-0.003-0.538-0.004c-0.368-0.056-0.689-0.213-0.981-0.438
		c-0.064-0.073-0.128-0.147-0.192-0.221c-0.247-0.436-0.223-0.918-0.241-1.393c-0.001-0.18-0.001-0.359-0.002-0.539
		c0.001-0.536,0.001-1.073,0.002-1.608c-0.001-0.18-0.001-0.359-0.002-0.539c0.006-0.536,0.011-1.073,0.016-1.609
		c0.207-0.649,0.614-1.082,1.306-1.206c0.491-0.006,0.981-0.011,1.473-0.016c0.222,0.001,0.444,0.002,0.665,0.003
		c0.536-0.001,1.072-0.003,1.607-0.003c0.181,0,0.36,0.001,0.54,0.002c0.5-0.001,1-0.002,1.5-0.002
		c0.216,0.006,0.432,0.012,0.647,0.018c0.371,0.06,0.664,0.268,0.947,0.496c0.069,0.106,0.14,0.215,0.209,0.322
		c0.154,0.402,0.116,0.827,0.144,1.243c0.001,0.18,0.002,0.359,0.003,0.539c-0.001,0.537-0.002,1.072-0.003,1.609
		c0.001,0.18,0.002,0.358,0.003,0.538c-0.008,0.537-0.016,1.073-0.022,1.61c-0.196,0.586-0.59,0.975-1.174,1.173
		c-0.536,0.008-1.074,0.016-1.61,0.023c-0.18-0.001-0.359-0.002-0.538-0.003C44.192,48.689,43.655,48.69,43.119,48.691z"/>
	<path fill-rule="evenodd" clip-rule="evenodd" fill="#05AAE2" d="M28.086,48.691c-0.18-0.001-0.359-0.002-0.539-0.003
		c-0.385-0.02-0.775-0.01-1.148-0.137c-0.15-0.109-0.301-0.22-0.451-0.329c-0.195-0.287-0.352-0.589-0.39-0.941
		c0.001-0.216,0.001-0.433,0.001-0.648c0-0.499,0-0.999,0-1.498c0-0.216,0-0.433,0-0.649c-0.008-0.499-0.017-0.997-0.026-1.495
		c0.014-0.217,0.028-0.435,0.043-0.651c0.184-0.686,0.626-1.089,1.325-1.212c0.18-0.002,0.361-0.004,0.541-0.006
		c0.535-0.001,1.071-0.002,1.605-0.003c0.181,0.001,0.362,0.002,0.542,0.003c0.5-0.001,0.999-0.002,1.498-0.002
		c0.217,0,0.434,0.001,0.65,0.003c0.499,0.001,0.998,0.003,1.498,0.005c0.18,0.046,0.359,0.093,0.539,0.139
		c0.2,0.187,0.4,0.371,0.601,0.557c0.058,0.137,0.116,0.275,0.174,0.412c0.021,0.502,0.042,1.003,0.063,1.505
		c-0.059,0.216-0.059,0.432,0.002,0.647c-0.056,0.499-0.051,1-0.002,1.5c-0.059,0.216-0.059,0.432,0.002,0.646
		c0.012,1.872-0.747,2.217-2.234,2.158c-0.18-0.001-0.359-0.002-0.539-0.003c-0.536,0.001-1.072,0.002-1.609,0.003
		c-0.18-0.001-0.359-0.002-0.539-0.003C29.159,48.689,28.623,48.69,28.086,48.691z"/>
</g>
</svg>
