<?xml version="1.0" encoding="utf-8"?>
<!-- Generator: Adobe Illustrator 16.0.0, SVG Export Plug-In . SVG Version: 6.00 Build 0)  -->
<!DOCTYPE svg PUBLIC "-//W3C//DTD SVG 1.1//EN" "http://www.w3.org/Graphics/SVG/1.1/DTD/svg11.dtd">
<svg version="1.1" id="Layer_1" xmlns="http://www.w3.org/2000/svg" xmlns:xlink="http://www.w3.org/1999/xlink" x="0px" y="0px"
	 width="60px" height="60px" viewBox="0 0 60 60" enable-background="new 0 0 60 60" xml:space="preserve">
<path fill-rule="evenodd" clip-rule="evenodd" fill="#CFCFCF" d="M30.074,59.25c-5.512,0-11.023,0.018-16.535-0.007
	c-5.764-0.021-10.7-3.837-12.219-9.398c-0.284-1.042-0.431-2.105-0.431-3.186c0-11.087-0.018-22.174,0.006-33.26
	C0.909,7.177,5.436,1.911,11.563,0.918c0.697-0.113,1.406-0.155,2.118-0.155c10.942,0.006,21.884-0.005,32.825,0.008
	c6.313,0.006,11.525,4.436,12.589,10.677c0.13,0.76,0.16,1.531,0.16,2.306c-0.007,10.841-0.004,21.687-0.007,32.531
	c0,6.46-4.192,11.549-10.522,12.779c-0.779,0.153-1.566,0.188-2.36,0.188c-2.713-0.006-5.431-0.002-8.145-0.002
	C35.504,59.25,32.792,59.25,30.074,59.25z M57.306,30.006c0-5.481,0.007-10.959-0.004-16.443C57.29,7.469,52.552,2.722,46.479,2.719
	c-10.94-0.006-21.88-0.007-32.82,0C7.586,2.723,2.841,7.478,2.836,13.563c-0.008,10.962-0.006,21.929,0,32.891
	C2.839,52.537,7.578,57.29,13.66,57.297c10.94,0.01,21.879,0.002,32.82,0.005c0.69,0,1.379-0.047,2.052-0.182
	c5.235-1.059,8.768-5.374,8.774-10.728C57.311,40.932,57.306,35.467,57.306,30.006z"/>
<path fill-rule="evenodd" clip-rule="evenodd" fill="#515151" d="M40.768,30.339c-0.008,0.494-0.285,0.754-0.597,1.004
	c-4.785,3.831-9.57,7.664-14.354,11.494c-1.176,0.944-2.357,1.878-3.523,2.834c-0.262,0.216-0.428,0.313-0.652-0.052
	c-0.253-0.416-0.806-0.794-0.8-1.182c0.005-0.401,0.652-0.65,1.024-0.948c5.274-4.231,10.55-8.464,15.84-12.671
	c0.489-0.388,0.397-0.549-0.024-0.886c-5.492-4.381-10.969-8.783-16.462-13.165c-0.384-0.307-0.506-0.487-0.132-0.926
	c0.863-1.016,0.834-1.042,1.891-0.195c5.722,4.585,11.442,9.17,17.167,13.753C40.471,29.663,40.768,29.927,40.768,30.339z"/>
</svg>
