<?xml version="1.0" encoding="utf-8"?>
<!-- Generator: Adobe Illustrator 16.0.0, SVG Export Plug-In . SVG Version: 6.00 Build 0)  -->
<!DOCTYPE svg PUBLIC "-//W3C//DTD SVG 1.1//EN" "http://www.w3.org/Graphics/SVG/1.1/DTD/svg11.dtd">
<svg version="1.1" id="Layer_1" xmlns="http://www.w3.org/2000/svg" xmlns:xlink="http://www.w3.org/1999/xlink" x="0px" y="0px"
	 width="60px" height="60px" viewBox="0 0 60 60" enable-background="new 0 0 60 60" xml:space="preserve">
<path fill="#515151" d="M21.981,13.559c-0.367-0.471-0.786-0.89-1.256-1.256c-0.132-0.235-0.315-0.418-0.549-0.55
	c-0.367-0.471-0.786-0.89-1.256-1.256c-0.132-0.235-0.315-0.418-0.55-0.55c-0.374-0.416-0.748-0.832-1.121-1.247
	c-0.07-0.243-0.141-0.485-0.211-0.729c0.157-1.369,0.681-1.889,2.045-2.031c0.242,0.071,0.485,0.142,0.727,0.213
	c0.411,0.372,0.821,0.743,1.232,1.115c0.186,0.186,0.372,0.372,0.558,0.558c0.365,0.467,0.781,0.883,1.248,1.248
	c0.186,0.186,0.372,0.372,0.558,0.558c0.365,0.467,0.781,0.883,1.248,1.248c0.186,0.186,0.372,0.372,0.558,0.558
	c0.365,0.467,0.78,0.883,1.248,1.248c0.187,0.186,0.373,0.373,0.558,0.559c0.365,0.467,0.781,0.883,1.248,1.248
	c0.187,0.186,0.373,0.372,0.559,0.558c0.365,0.467,0.78,0.883,1.248,1.248c0.187,0.187,0.373,0.373,0.559,0.559
	c0.365,0.467,0.78,0.883,1.247,1.248c0.188,0.186,0.373,0.372,0.561,0.558c0.363,0.467,0.779,0.883,1.246,1.248
	c0.187,0.186,0.373,0.372,0.559,0.559c0.365,0.467,0.779,0.883,1.248,1.248c0.186,0.186,0.373,0.372,0.559,0.559
	c0.415,0.416,0.831,0.832,1.246,1.247c0.137,0.238,0.322,0.424,0.561,0.56c0.414,0.416,0.83,0.832,1.246,1.247
	c0.188,0.187,0.373,0.373,0.56,0.559c0.416,0.416,0.831,0.832,1.247,1.247c0.186,0.187,0.373,0.373,0.559,0.559
	c0.399,0.423,0.797,0.846,1.194,1.269c0.093,0.168,0.187,0.336,0.276,0.504c0.14,0.919-0.254,1.59-0.896,2.231
	c-7.161,7.135-14.308,14.283-21.443,21.445c-0.64,0.643-1.314,1.027-2.233,0.89c-0.167-0.095-0.333-0.188-0.499-0.282
	c-0.417-0.359-0.725-0.787-0.817-1.345c-0.006-0.438,0.105-0.851,0.277-1.249c6.825-6.821,13.642-13.652,20.493-20.447
	c0.615-0.61,0.58-0.961-0.045-1.433c-0.282-0.214-0.529-0.479-0.793-0.72c-0.131-0.235-0.313-0.418-0.549-0.55
	c-0.367-0.471-0.785-0.89-1.256-1.256c-0.133-0.235-0.315-0.418-0.551-0.55c-0.367-0.471-0.785-0.89-1.257-1.256
	c-0.132-0.234-0.313-0.417-0.549-0.549c-0.367-0.471-0.786-0.89-1.259-1.256c-0.129-0.235-0.313-0.418-0.549-0.55
	c-0.367-0.471-0.785-0.889-1.256-1.256c-0.132-0.234-0.315-0.418-0.549-0.549c-0.367-0.471-0.786-0.89-1.257-1.256
	c-0.131-0.235-0.314-0.418-0.549-0.55c-0.366-0.471-0.786-0.89-1.256-1.256c-0.131-0.235-0.314-0.418-0.55-0.549
	c-0.366-0.471-0.785-0.89-1.256-1.256c-0.131-0.235-0.314-0.418-0.549-0.55c-0.367-0.471-0.786-0.89-1.256-1.256
	C22.399,13.873,22.216,13.69,21.981,13.559z"/>
</svg>
