<?xml version="1.0" encoding="utf-8"?>
<!-- Generator: Adobe Illustrator 16.0.0, SVG Export Plug-In . SVG Version: 6.00 Build 0)  -->
<!DOCTYPE svg PUBLIC "-//W3C//DTD SVG 1.1//EN" "http://www.w3.org/Graphics/SVG/1.1/DTD/svg11.dtd">
<svg version="1.1" id="Layer_1" xmlns="http://www.w3.org/2000/svg" xmlns:xlink="http://www.w3.org/1999/xlink" x="0px" y="0px"
	 width="27px" height="28px" viewBox="0 0 27 28" enable-background="new 0 0 27 28" xml:space="preserve">
<g>
	
		<linearGradient id="SVGID_1_" gradientUnits="userSpaceOnUse" x1="48.6816" y1="-141.0698" x2="71.4057" y2="-163.7939" gradientTransform="matrix(1 0 0 -1 -47.6602 -138.46)">
		<stop  offset="0" style="stop-color:#DD272D"/>
		<stop  offset="0.5153" style="stop-color:#CA2429"/>
		<stop  offset="1" style="stop-color:#B22025"/>
	</linearGradient>
	<polygon fill="url(#SVGID_1_)" points="11.437,17.215 16.603,14 11.437,10.787 	"/>
	
		<linearGradient id="SVGID_2_" gradientUnits="userSpaceOnUse" x1="49.1904" y1="-140.4902" x2="72.0219" y2="-163.3217" gradientTransform="matrix(1 0 0 -1 -47.6602 -138.46)">
		<stop  offset="0" style="stop-color:#DD272D"/>
		<stop  offset="0.5153" style="stop-color:#CA2429"/>
		<stop  offset="1" style="stop-color:#B22025"/>
	</linearGradient>
	<path fill="url(#SVGID_2_)" d="M13.5,0C6.045,0,0,6.269,0,14c0,7.732,6.045,14,13.5,14C20.956,28,27,21.732,27,14
		C27,6.269,20.956,0,13.5,0z M21.764,14.691c0,1.48-0.166,2.959-0.166,2.959s-0.161,1.26-0.656,1.814
		c-0.629,0.727-1.333,0.732-1.656,0.775C16.973,20.424,13.5,20.43,13.5,20.43s-4.297-0.043-5.619-0.184
		c-0.367-0.076-1.192-0.055-1.822-0.781C5.563,18.91,5.402,17.65,5.402,17.65s-0.165-1.479-0.165-2.959v-1.386
		c0-1.479,0.165-2.959,0.165-2.959s0.162-1.261,0.656-1.815c0.63-0.728,1.334-0.731,1.656-0.773
		c2.313-0.186,5.781-0.186,5.781-0.186h0.008c0,0,3.469,0,5.781,0.186c0.323,0.042,1.027,0.046,1.656,0.773
		c0.496,0.555,0.656,1.815,0.656,1.815s0.166,1.479,0.166,2.959V14.691L21.764,14.691z"/>
</g>
</svg>
