<?xml version="1.0" encoding="utf-8"?>
<!-- Generator: Adobe Illustrator 16.0.0, SVG Export Plug-In . SVG Version: 6.00 Build 0)  -->
<!DOCTYPE svg PUBLIC "-//W3C//DTD SVG 1.1//EN" "http://www.w3.org/Graphics/SVG/1.1/DTD/svg11.dtd">
<svg version="1.1" id="Layer_1" xmlns="http://www.w3.org/2000/svg" xmlns:xlink="http://www.w3.org/1999/xlink" x="0px" y="0px"
	 width="27px" height="28px" viewBox="0 0 27 28" enable-background="new 0 0 27 28" xml:space="preserve">
<g>
	<ellipse fill="#2A5C83" cx="13.5" cy="14" rx="13.5" ry="13.999"/>
	<path id="Instagram_1_" fill="#FFFFFF" d="M18.832,6.746H8.167c-0.919,0-1.663,0.771-1.663,1.721v11.068
		c0,0.949,0.744,1.721,1.663,1.721h10.665c0.918,0,1.662-0.771,1.662-1.721V8.466C20.494,7.516,19.75,6.746,18.832,6.746z
		 M16.561,9.013c0-0.251,0.195-0.454,0.438-0.454h1.311c0.242,0,0.438,0.203,0.438,0.454v1.36c0,0.25-0.195,0.453-0.438,0.453
		h-1.311c-0.242,0-0.438-0.203-0.438-0.453V9.013z M13.516,11.234c1.486,0,2.691,1.246,2.691,2.783c0,1.537-1.205,2.785-2.691,2.785
		c-1.486,0-2.69-1.248-2.69-2.785C10.826,12.48,12.03,11.234,13.516,11.234z M19.184,19.44c0,0.25-0.195,0.453-0.438,0.453H8.253
		c-0.242,0-0.438-0.203-0.438-0.453v-6.8h1.749c-0.228,0.34-0.305,0.975-0.305,1.377c0,2.427,1.909,4.404,4.255,4.404
		c2.348,0,4.256-1.977,4.256-4.404c0-0.402-0.055-1.027-0.336-1.377h1.748V19.44z"/>
</g>
</svg>
