<?xml version="1.0" encoding="utf-8"?>
<!-- Generator: Adobe Illustrator 16.0.0, SVG Export Plug-In . SVG Version: 6.00 Build 0)  -->
<!DOCTYPE svg PUBLIC "-//W3C//DTD SVG 1.1//EN" "http://www.w3.org/Graphics/SVG/1.1/DTD/svg11.dtd">
<svg version="1.1" id="Layer_1" xmlns="http://www.w3.org/2000/svg" xmlns:xlink="http://www.w3.org/1999/xlink" x="0px" y="0px"
	 width="40px" height="40px" viewBox="-34.25 0.875 40 40" enable-background="new -34.25 0.875 40 40" xml:space="preserve">
<path fill="#05AAE2" d="M-9.729,20.857c1.73,0.463,3.46,0.929,5.193,1.382c0.117,0.03,0.286-0.016,0.392-0.085
	c0.972-0.629,1.922-1.292,2.905-1.9c0.446-0.275,0.939-0.496,1.434-0.672c0.484-0.171,0.904,0.015,1.271,0.381
	c0.481,0.479,0.527,1.5,0.208,2.045c-1.138,1.954-2.261,3.917-3.396,5.873c-0.404,0.696-1.108,1-1.895,0.824
	c-0.528-0.119-1.049-0.267-1.572-0.406c-7.545-2.02-15.09-4.042-22.635-6.061c-0.505-0.134-0.955-0.359-1.336-0.713
	c-1.02-0.945-1.261-2.455-0.588-3.665c0.685-1.234,2.063-1.801,3.481-1.424c2.707,0.721,5.413,1.444,8.118,2.175
	c0.232,0.063,0.406,0.036,0.607-0.097c2.371-1.576,4.738-3.154,7.128-4.702c0.482-0.312,1.031-0.543,1.576-0.732
	c0.642-0.22,1.185,0.015,1.604,0.542c0.528,0.666,0.59,1.526,0.14,2.313c-0.869,1.519-1.749,3.034-2.623,4.55
	c-0.057,0.098-0.108,0.196-0.171,0.316C-9.821,20.824-9.776,20.844-9.729,20.857z"/>
</svg>
