<?xml version="1.0" encoding="utf-8"?>
<!-- Generator: Adobe Illustrator 16.0.0, SVG Export Plug-In . SVG Version: 6.00 Build 0)  -->
<!DOCTYPE svg PUBLIC "-//W3C//DTD SVG 1.1//EN" "http://www.w3.org/Graphics/SVG/1.1/DTD/svg11.dtd">
<svg version="1.1" id="Layer_1" xmlns="http://www.w3.org/2000/svg" xmlns:xlink="http://www.w3.org/1999/xlink" x="0px" y="0px"
	 width="27px" height="28px" viewBox="0 0 27 28" enable-background="new 0 0 27 28" xml:space="preserve">
<path fill="#3A589B" d="M11.594,21.616h3.035v-7.617h2.024l0.269-2.624h-2.293l0.003-1.314c0-0.685,0.063-1.051,1.01-1.051h1.266
	V6.385h-2.024c-2.433,0-3.289,1.273-3.289,3.414v1.576h-1.516V14h1.516V21.616z M13.5,28C6.045,28,0,21.731,0,14
	C0,6.268,6.045,0,13.5,0C20.956,0,27,6.268,27,14C27,21.731,20.956,28,13.5,28z"/>
</svg>
