<?xml version="1.0" encoding="utf-8"?>
<!-- Generator: Adobe Illustrator 16.0.0, SVG Export Plug-In . SVG Version: 6.00 Build 0)  -->
<!DOCTYPE svg PUBLIC "-//W3C//DTD SVG 1.1//EN" "http://www.w3.org/Graphics/SVG/1.1/DTD/svg11.dtd">
<svg version="1.1" id="Layer_1" xmlns="http://www.w3.org/2000/svg" xmlns:xlink="http://www.w3.org/1999/xlink" x="0px" y="0px"
	 width="250px" height="250px" viewBox="0 0 250 250" enable-background="new 0 0 250 250" xml:space="preserve">
<path fill-rule="evenodd" clip-rule="evenodd" fill="#515151" stroke="#FFFFFF" stroke-width="2" stroke-miterlimit="10" d="
	M74.066,11.983c-1.989-1.228-3.041-2.938-2.26-5.245c0.752-2.219,2.602-2.759,4.823-2.757c29.585,0.027,59.172,0.015,88.758,0.022
	c3.86,0.001,6.097,2.796,4.642,5.78c-0.819,1.679-2.221,2.413-4.104,2.393c-3.386-0.035-6.774,0.045-10.157-0.036
	c-1.325-0.031-1.813,0.299-1.8,1.708c0.078,10.932,0.082,21.865,0.107,32.798c0.008,0.802,0.019,1.603,0.027,2.404
	c-0.075,4.42-1.268,4.123,4.777,3.831c0.803,0.011,1.61,0.023,2.413,0.034c6.693,0.034,13.385,0.066,20.079,0.101
	c13.425,0.07,22.03,8.633,22.031,21.937c0.004,45.44,0.002,90.882,0,136.32c0,10.49-5.008,17.487-15.05,20.9
	c-1.11,0.379-1.488,0.888-1.44,2.024c0.084,1.99,0.136,3.979-0.396,5.948c-1.593,5.893-7.231,9.799-13.312,9.151
	c-6.159-0.653-10.857-5.792-10.98-12.007c-0.087-4.268-0.087-4.27-4.531-4.27c-25.004,0.007-50.008,0.048-75.011-0.044
	c-2.332-0.008-2.979,0.494-2.887,2.843c0.245,6.187-2.896,10.878-8.18,12.792c-7.92,2.866-16.254-2.635-16.447-11.262
	c-0.076-3.396-0.975-4.882-4.268-6.271c-8.725-3.684-12.397-10.869-12.384-20.104c0.03-19.083,0.009-38.169,0.009-57.256
	c0-25.796,0.123-51.588-0.062-77.381c-0.068-9.592,3.408-16.858,12.013-21.511c1.273-0.422,2.546-0.845,3.819-1.267
	c2.595-0.225,5.189-0.45,7.785-0.674c0.804,0.012,1.608,0.022,2.412,0.034c2.422-0.012,4.846-0.023,7.268-0.035
	c0.803,0.012,1.607,0.023,2.411,0.035c2.424-0.012,4.845-0.023,7.269-0.035c0.804,0.012,1.608,0.023,2.412,0.035
	c4.443,0.284,4.443,0.284,4.1-3.86c0.221-0.977,0.226-1.951-0.055-2.919c0.314-2.215,0.229-4.434,0.055-6.652
	c0.221-0.981,0.227-1.958-0.055-2.931c0.314-2.215,0.229-4.433,0.055-6.652c0.221-0.98,0.226-1.959-0.055-2.931
	c0.315-2.219,0.229-4.442,0.055-6.665c0.22-0.978,0.225-1.952-0.056-2.919c0.059-0.709,0.16-1.417,0.17-2.127
	c0.039-3.203,0.03-3.203-3.229-3.002c-0.813-0.008-1.626-0.016-2.439-0.024c-2.416-0.001-4.83-0.002-7.244-0.004
	C74.793,12.151,74.429,12.067,74.066,11.983z M145.66,49.058c-0.009-0.808-0.017-1.615-0.026-2.423
	c0.01-2.386,0.018-4.771,0.026-7.157c-0.009-0.81-0.017-1.618-0.026-2.427c0.01-2.386,0.018-4.772,0.026-7.157
	c-0.009-0.809-0.017-1.618-0.026-2.427c0.01-2.386,0.018-4.772,0.026-7.157c-0.009-0.809-0.017-1.617-0.026-2.426
	c0.036-1.013-0.015-2.039,0.134-3.037c0.342-2.312-0.566-3.163-2.85-2.584c-0.813-0.008-1.625-0.016-2.438-0.024
	c-2.414,0.008-4.827,0.016-7.24,0.024c-0.813-0.008-1.627-0.016-2.441-0.024c-2.412,0.008-4.825,0.016-7.239,0.024
	c-0.813-0.008-1.627-0.016-2.439-0.024c-2.414,0.008-4.827,0.016-7.241,0.024c-0.812-0.01-1.624-0.02-2.435-0.029
	c-2.416,0.007-4.833,0.015-7.25,0.023c-0.811-0.008-1.62-0.016-2.43-0.023c-1.614,0-3.228,0-4.841,0
	c-0.311-0.046-0.521,0.029-0.494,0.396c-0.004,1.599-0.008,3.195-0.012,4.793c0.011,0.799,0.021,1.596,0.032,2.394
	c-0.01,2.398-0.021,4.793-0.032,7.19c0.014,0.798,0.028,1.597,0.042,2.396c-0.011,2.396-0.021,4.791-0.032,7.188
	c0.01,0.799,0.021,1.598,0.032,2.395c-0.011,2.396-0.021,4.793-0.032,7.188c0.01,0.798,0.021,1.597,0.032,2.395
	c-0.219,5.152-0.881,4.557,4.342,4.314c0.805,0.011,1.609,0.023,2.416,0.034c2.421-0.011,4.843-0.023,7.264-0.034
	c0.806,0.011,1.61,0.023,2.416,0.034c2.421-0.011,4.844-0.023,7.264-0.034c0.805,0.011,1.61,0.023,2.416,0.034
	c2.423-0.011,4.843-0.023,7.267-0.034c0.803,0.011,1.608,0.023,2.413,0.034c2.423-0.011,4.845-0.023,7.266-0.034
	c0.806,0.011,1.608,0.023,2.415,0.034c4.65,0.239,3.768,0.37,3.764-3.624C145.699,49.214,145.673,49.136,145.66,49.058z
	 M195.045,161.667c0.041-9.107,0.116-18.214,0.042-27.317c-0.006-0.804-0.015-1.608-0.022-2.415
	c0.008-2.389,0.017-4.779,0.022-7.168c-0.006-0.805-0.015-1.609-0.022-2.415c0.008-2.39,0.017-4.779,0.022-7.168
	c-0.006-0.805-0.015-1.609-0.022-2.416c0.008-2.389,0.017-4.778,0.022-7.168c-0.006-0.805-0.015-1.61-0.022-2.415
	c0.008-2.391,0.017-4.78,0.022-7.169c-0.006-0.805-0.015-1.611-0.022-2.415c0.008-2.39,0.017-4.779,0.022-7.17
	c-0.006-0.805-0.015-1.609-0.022-2.416c0.008-2.388,0.017-4.778,0.022-7.168c-0.006-0.804-0.015-1.609-0.022-2.415
	c0.239-2.453-0.236-4.743-1.591-6.833c-0.188-0.292-0.377-0.583-0.565-0.875c-0.835-1.729-2.317-2.796-3.895-3.778
	c-2.895-1.798-6.112-1.647-9.344-1.694c-1.541-0.023-2.074,0.53-2.398,1.928c-0.987,4.26-2.265,8.456-3.153,12.732
	c-1.938,9.318-7.302,15.365-16.683,17.773c-0.969,0.127-1.94,0.255-2.908,0.382c-5.073-0.021-10.146,0.019-15.216-0.099
	c-1.609-0.038-1.847,0.629-1.817,1.978c0.072,3.265,0.072,6.538,0.006,9.805c-0.058,2.902-1.611,4.551-4.446,4.573
	c-8.052,0.06-16.106,0.065-24.159-0.001c-2.789-0.023-4.282-1.629-4.333-4.367c-0.043-2.311,0.008-4.623-0.016-6.937
	c-0.052-5.332-0.06-5.332-5.678-4.897c-0.808-0.01-1.616-0.019-2.423-0.028c-2.418,0.009-4.838,0.019-7.256,0.029
	c-0.804-0.036-1.608-0.072-2.412-0.108c-1.941-0.446-3.883-0.891-5.824-1.337c-0.46-0.211-0.918-0.423-1.378-0.634
	c-1.269-0.777-2.536-1.556-3.803-2.333c-0.689-0.625-1.376-1.248-2.064-1.872c-0.867-1.104-1.733-2.209-2.597-3.313
	c-0.407-0.682-0.814-1.362-1.22-2.043c-0.529-1.561-1.059-3.119-1.588-4.679c-0.169-0.644-0.338-1.288-0.508-1.932
	c-0.474-1.912-0.949-3.823-1.422-5.734c-0.171-0.646-0.341-1.289-0.51-1.933c-0.474-1.912-0.948-3.824-1.421-5.735
	c-0.291-2.071-1.766-1.125-2.877-1.106c-9.829,0.175-13.976,6.753-14.785,15.589c-0.907,9.893,0.156,20,0.256,29.911
	c0.209,20.758-0.439,41.515-0.227,62.273c0.118,11.584,0.551,23.162,0.631,34.747c0.027,4.063-1.272,8.218-0.04,12.2
	c1.928,6.23,7.223,9.246,15.153,8.646c0.817,0.01,1.634,0.019,2.451,0.026c2.408-0.01,4.819-0.017,7.228-0.026
	c0.818,0.01,1.634,0.017,2.451,0.026c2.41-0.01,4.82-0.017,7.23-0.026c0.816,0.01,1.634,0.017,2.45,0.026
	c2.41-0.01,4.819-0.017,7.229-0.026c0.816,0.01,1.634,0.017,2.451,0.026c2.409-0.01,4.819-0.017,7.229-0.026
	c0.817,0.01,1.634,0.017,2.451,0.026c2.41-0.01,4.819-0.017,7.23-0.026c0.816,0.01,1.633,0.017,2.45,0.026
	c2.409-0.01,4.82-0.017,7.229-0.026c0.817,0.01,1.634,0.017,2.451,0.026c2.409-0.01,4.82-0.017,7.23-0.026
	c0.814,0.01,1.632,0.017,2.449,0.026c2.409-0.01,4.821-0.017,7.23-0.026c0.815,0.01,1.632,0.017,2.448,0.026
	c2.411-0.01,4.821-0.017,7.23-0.026c0.817,0.01,1.632,0.017,2.451,0.026c2.409-0.01,4.818-0.017,7.229-0.026
	c0.817,0.01,1.636,0.017,2.45,0.026c2.411-0.01,4.824-0.017,7.234-0.026c4.04,0.249,8.081,0.173,12.122,0.029
	c8.603,0.469,14.326-5.175,13.932-13.74c-0.006-3.998-0.013-7.996-0.022-11.995c0.008-2.393,0.017-4.78,0.022-7.172
	c-0.006-0.805-0.015-1.609-0.022-2.414c0.008-2.389,0.017-4.779,0.022-7.17c-0.006-0.805-0.015-1.607-0.022-2.415
	C195.008,173.792,195.019,167.729,195.045,161.667z M121.145,61.196c0,0.003,0,0.008,0,0.013c-3.386,0-6.772,0-10.158-0.001
	c-11.93-0.003-23.863,0.015-35.794-0.032c-1.723-0.006-2.666,0.082-2.004,2.279c1.262,4.193,2.163,8.493,3.336,12.715
	c1.724,6.203,5.953,9.601,12.457,9.627c21.363,0.085,42.727,0.08,64.09,0.006c6.485-0.021,10.946-3.711,12.512-9.913
	c1.034-4.096,1.882-8.246,3.116-12.279c0.708-2.319-0.166-2.455-2.085-2.447C151.457,61.221,136.302,61.196,121.145,61.196z
	 M120.917,102.184c0.723,0,1.447,0,2.17,0c6.454,0.002,6.454,0.002,6.199-6.453c-0.001-0.079-0.009-0.16,0.001-0.239
	c0.146-1.154-0.381-1.517-1.522-1.496c-2.894,0.057-5.789-0.013-8.684,0.01c-6.553,0.052-6.522,0.062-6.305,6.534
	c0.042,1.198,0.325,1.719,1.628,1.667C116.571,102.12,118.745,102.184,120.917,102.184z M71.557,235.476
	c0.587-2.07-0.464-2.73-2.656-2.492c-1.43,0.156-2.889,0.034-4.335,0.056c-0.464,0.007-0.934-0.054-1.202,0.53
	c-0.646,1.396,0.127,5.553,1.331,6.524c1.339,1.087,2.831,1.454,4.478,0.657C71.331,239.707,71.667,237.816,71.557,235.476z
	 M174.682,233.013c-4.223,0.001-4.223,0.001-4.223,2.857c0,3.387,1.5,5.312,4.132,5.309c2.497-0.006,4.09-2.003,4.093-5.133
	C178.688,233.013,178.688,233.013,174.682,233.013z"/>
<path fill-rule="evenodd" clip-rule="evenodd" fill="#515151" stroke="#FFFFFF" stroke-width="2" stroke-miterlimit="10" d="
	M71.466,131.975c-0.006-0.809-0.012-1.616-0.02-2.423c0.975-2.171,2.662-2.924,5.043-2.918c15.526,0.034,31.051-0.023,46.577-0.05
	c0.814,0.008,1.628,0.015,2.442,0.021c2.425-0.006,4.85-0.013,7.275-0.021c0.815,0.008,1.63,0.015,2.443,0.021
	c2.425-0.008,4.85-0.013,7.274-0.021c0.815,0.008,1.63,0.013,2.444,0.021c2.425-0.008,4.851-0.013,7.274-0.021
	c0.816,0.008,1.63,0.013,2.443,0.021c2.425-0.008,4.851-0.013,7.275-0.022c0.814,0.01,1.63,0.015,2.443,0.022
	c1.684,0.104,3.436-0.105,4.903,1.018c0.367,0.513,0.732,1.027,1.101,1.542c0.731,4.072-0.713,5.468-5.999,5.804
	c-0.815-0.008-1.633-0.015-2.448-0.022c-2.424,0.008-4.847,0.015-7.271,0.022c-0.816-0.008-1.632-0.015-2.45-0.022
	c-2.422,0.008-4.845,0.015-7.269,0.022c-0.816-0.008-1.632-0.015-2.448-0.022c-2.425,0.008-4.848,0.015-7.271,0.022
	c-0.815-0.008-1.632-0.015-2.449-0.022c-2.424,0.008-4.846,0.015-7.27,0.022c-0.816-0.008-1.632-0.015-2.449-0.022
	c-2.423,0.008-4.847,0.015-7.27,0.022c-0.816-0.008-1.633-0.015-2.449-0.022c-2.423,0.008-4.848,0.015-7.271,0.022
	c-0.816-0.008-1.631-0.017-2.447-0.024c-2.424,0.008-4.848,0.015-7.272,0.024c-0.815-0.008-1.631-0.017-2.445-0.022
	c-2.425,0.008-4.848,0.015-7.272,0.022c-0.816-0.008-1.631-0.015-2.446-0.022c-2.424,0.008-4.848,0.015-7.272,0.022
	c-0.813-0.031-1.627-0.063-2.441-0.094C73.11,134.279,72.017,133.403,71.466,131.975z"/>
<path fill-rule="evenodd" clip-rule="evenodd" fill="#515151" stroke="#FFFFFF" stroke-width="2" stroke-miterlimit="10" d="
	M170.384,195.037c0.143,0.281,0.266,0.587,0.365,0.92c-0.527,3.364-1.299,4.116-4.915,4.798c-0.808-0.012-1.615-0.023-2.424-0.036
	c-6.479-0.108-12.958,0.107-19.437,0c-4.492-0.283-8.995,0.012-13.492-0.097c-4.416-0.106-8.834-0.291-13.241,0.133
	c-3.232,0.312-6.471-0.313-9.719,0c-3.959,0.382-8.172,0.215-12.141-0.036c-2.433-0.154-4.865-0.198-7.295,0.036
	c-0.808-0.014-1.615-0.024-2.423-0.038c-2.98-0.029-5.961-0.04-8.941-0.09c-3.242-0.055-5.098-1.352-5.344-3.692
	c-0.459-4.385,4.352-4.382,7.398-4.576c6.144-0.392,12.279-0.155,18.427,0.006c3.625,0.094,7.256,0.198,10.882,0.197
	c5.703-0.003,11.399-0.275,17.099-0.415c3.147-0.078,6.296-0.117,9.444-0.049c9.77,0.211,19.491,0.339,29.259,0.062
	C166.573,192.084,169.188,192.687,170.384,195.037z"/>
<path fill-rule="evenodd" clip-rule="evenodd" fill="#515151" stroke="#FFFFFF" stroke-width="2" stroke-miterlimit="10" d="
	M73.561,167.378c-0.5-0.425-1-0.849-1.502-1.274c-1.589-4.084,0.067-6.573,4.41-6.636c1.28-0.02,2.56-0.075,3.84-0.115
	c0.812,0.008,1.623,0.017,2.434,0.027c2.429-0.011,4.856-0.02,7.284-0.029c0.812,0.01,1.623,0.019,2.435,0.029
	c2.429-0.011,4.856-0.02,7.284-0.029c0.813,0.01,1.624,0.019,2.435,0.029c2.428-0.011,4.856-0.02,7.284-0.029
	c0.813,0.01,1.624,0.019,2.434,0.029c2.429-0.011,4.856-0.02,7.284-0.029c0.812,0.01,1.624,0.019,2.436,0.029
	c2.428-0.011,4.857-0.02,7.283-0.029c0.813,0.01,1.624,0.019,2.437,0.029c2.426-0.011,4.855-0.02,7.283-0.029
	c0.812,0.01,1.622,0.019,2.435,0.029c2.428-0.011,4.855-0.02,7.284-0.029c0.811,0.01,1.624,0.019,2.435,0.029
	c2.427-0.011,4.854-0.02,7.283-0.029c0.811,0.01,1.624,0.019,2.436,0.029c2.413,0.068,4.827,0.138,7.24,0.209
	c0.498,0.267,0.993,0.533,1.49,0.801c1.071,1.24,1.642,2.64,1.407,4.298c-0.72,1.433-1.686,2.595-3.345,2.995
	c-2.42,0.052-4.837,0.106-7.254,0.158c-0.661-0.231-1.326-0.217-1.997-0.052c-2.575-0.15-5.149-0.224-7.723,0.052
	c-0.659-0.231-1.325-0.217-1.995-0.052c-2.576-0.15-5.15-0.224-7.723,0.052c-0.66-0.231-1.326-0.217-1.996-0.052
	c-2.576-0.15-5.151-0.224-7.723,0.052c-0.66-0.231-1.326-0.217-1.997-0.052c-2.574-0.15-5.149-0.224-7.721,0.052
	c-0.66-0.231-1.326-0.217-1.997-0.052c-2.575-0.15-5.149-0.224-7.721,0.052c-0.66-0.231-1.327-0.217-1.998-0.052
	c-2.58-0.148-5.158-0.224-7.735,0.052c-0.655-0.231-1.315-0.215-1.981-0.054c-2.581,0.008-5.162,0.015-7.742,0.024
	c-0.654-0.01-1.307-0.017-1.96-0.024c-2.425,0.008-4.848,0.017-7.272,0.024c-0.816-0.01-1.63-0.017-2.446-0.024
	C78.067,167.462,75.779,167.987,73.561,167.378z"/>
</svg>
