<?xml version="1.0" encoding="utf-8"?>
<!-- Generator: Adobe Illustrator 16.0.0, SVG Export Plug-In . SVG Version: 6.00 Build 0)  -->
<!DOCTYPE svg PUBLIC "-//W3C//DTD SVG 1.1//EN" "http://www.w3.org/Graphics/SVG/1.1/DTD/svg11.dtd">
<svg version="1.1" id="Layer_1" xmlns="http://www.w3.org/2000/svg" xmlns:xlink="http://www.w3.org/1999/xlink" x="0px" y="0px"
	 width="250px" height="250px" viewBox="0 0 250 250" enable-background="new 0 0 250 250" xml:space="preserve">
<path fill="#F15A23" d="M44.731,246.115c-0.366-0.385-1.062-2.114-1.126-2.901c-0.092-1.2-0.357-3.579,0.366-4.505
	c1.931-2.461,5.858-1.894,8.44-1.066c1.648,0.527,2.544,1.016,2.394,2.796c-0.142,1.731-1.067,4.139-1.882,5.669
	c-0.741,1.398-1.712,1.619-3.286,1.563c-1.333-0.04-3.104-0.224-4.051-1.204"/>
<path fill="#F15A23" d="M133.357,246.115c-0.486-0.385-1.42-2.114-1.492-2.901c-0.12-1.2-0.486-3.579,0.488-4.505
	c2.587-2.461,7.819-1.894,11.265-1.066c2.193,0.527,3.388,1.016,3.191,2.796c-0.192,1.731-1.419,4.139-2.495,5.669
	c-1.016,1.398-2.289,1.619-4.399,1.563c-1.771-0.04-4.132-0.224-5.387-1.204"/>
<g>
	<path fill="#515151" d="M169.851,180.578c0,12.734,0.023,25.44-0.021,38.15c-0.032,11.988-7.306,19.556-19.33,19.93
		c-1.9,0.07-2.238,0.618-2.238,2.358c-0.037,7.639-7.022,11.453-13.805,7.607c-2.61-1.484-3.214-3.914-2.963-6.572
		c0.298-2.701-0.617-3.401-3.327-3.389c-22.776,0.12-45.563,0.12-68.334,0.015c-2.472-0.015-3.292,0.673-3.017,3.111
		c0.293,3.008-0.233,6.066-3.497,7.019c-3.762,1.135-7.818,1.71-11.278-0.999c-2.206-1.739-2.151-4.33-1.949-6.801
		c0.146-1.795-0.385-2.279-2.234-2.339c-11.965-0.385-19.357-7.979-19.375-19.94c-0.009-39.926-0.078-79.826,0.019-119.78
		c0.041-24.397,15.37-42.583,39.396-46.926c1.712-0.325,1.996-1.019,1.968-2.504c-0.042-9.177-0.042-18.328,0.036-27.479
		c0.028-1.735-0.549-2.115-2.151-2.172c-2.929-0.103-4.202-1.575-4.257-4.527c-0.069-3.145-0.042-6.319-0.009-9.464
		c0.009-4.612,1.41-5.985,5.969-5.985c22.469-0.014,44.953,0,67.419,0c1.194,0,2.384-0.075,3.565,0.009
		c2.746,0.215,4.32,1.794,4.386,4.57c0.081,3.758,0.021,7.488,0,11.239c0,2.479-1.42,3.946-3.704,4.129
		c-1.702,0.139-2.133,0.657-2.101,2.272c0.082,7.884,0.082,15.774,0,23.653c-0.032,1.786,0.503,2.14,2.225,1.813
		c28.169-4.93,54.121,12.997,58.896,40.962c2.431,14.084-0.984,26.946-9.452,38.49c-0.604,0.836-2.275,1.576-1.285,2.872
		c1.18,1.551,2.769,2.834,4.265,4.064c0.115,0.097,1.076-0.683,1.562-1.12c3.816-3.287,7.305-3.287,10.665,0.219
		c10.574,11.014,21.11,22.071,31.602,33.182c2.938,3.079,2.874,7.001-0.069,10.009c-2.191,2.248-4.48,4.426-6.802,6.552
		c-3.409,3.052-7.085,3.052-10.239-0.216c-10.66-11.081-21.284-22.204-31.825-33.382c-3.053-3.189-2.943-7.1,0.279-10.186
		c1.561-1.496,1.199-2.256-0.129-3.34c-0.76-0.623-1.418-1.401-2.096-2.098c-0.354-0.329-0.65-0.669-1.273-0.512
		c-1.99,0.586-5.506,5.378-5.506,7.599C169.851,153.951,169.851,167.267,169.851,180.578z M110.955,56.348
		c-0.458-0.703-0.979-0.567-1.437-0.567c-15.178,0-30.384-0.125-45.549,0.071c-11.814,0.16-21.728,4.817-29.88,13.329
		c-1.048,1.074-1.131,1.689,0,2.794c9.406,9.29,13.398,20.712,13.361,33.852c-0.105,29.592,0,59.143-0.105,88.718
		c0,2.563,0.709,3.024,3.108,3.024c29.084-0.095,58.15-0.095,87.234-0.019c2.439,0.019,3.333-0.348,3.323-3.111
		c-0.183-14.781-0.138-29.578,0-44.346c0-2.453-0.709-3.057-3.103-3.253c-26.855-2.13-45.806-21.492-47.376-48.339
		c-0.101-1.955-0.714-2.406-2.581-2.387c-8.162,0.103-16.351,0.057-24.548,0.032c-0.875,0-1.758,0-2.601-0.14
		c-1.116-0.215-1.781-0.885-1.808-2.053c-0.009-1.158,0.655-1.842,1.739-2.062c0.875-0.165,1.767-0.165,2.646-0.165
		c8.175-0.018,16.354-0.041,24.543,0.014c1.931,0.035,2.865-0.206,3.167-2.549c1.011-7.292,3.744-14.004,7.84-20.153
		C102.226,64.113,106.359,59.989,110.955,56.348z M140.187,142.65c24.937,0.531,45.686-19.76,46.358-45.361
		c0.673-24.85-20.187-46.013-45.709-46.388c-24.887-0.366-45.654,20.254-46.039,45.734
		C94.413,121.499,114.732,142.11,140.187,142.65z M144.996,234.174c-4.197-5.352-4.188-11.339-4.091-17.376
		c0.077-3.831-0.151-7.686,0.077-11.504c0.169-2.654-0.577-3.478-3.333-3.441c-24.442,0.11-48.88,0.063-73.318,0.063
		c-4.82,0-9.658,0.093-14.473-0.044c-1.996-0.079-2.541,0.603-2.477,2.508c0.114,4.028-0.023,8.103,0.042,12.139
		c0.1,6.092,0.288,12.202-4.056,17.659C77.422,234.174,110.955,234.174,144.996,234.174z M22.87,157.641
		c0,20.521,0.028,41.014-0.037,61.52c-0.032,4.527,1.228,8.536,4.696,11.301c7.713,6.179,12.025,5.017,15.069-4.413
		c0.33-1.016,0.43-2.132,0.43-3.213c0-40.398,0.101-80.811-0.101-121.229c-0.073-10.02-4.303-18.634-11.164-25.972
		c-1.41-1.485-1.978-1.217-2.897,0.353c-4.083,6.985-6.069,14.432-6.042,22.522C22.911,118.208,22.87,137.954,22.87,157.641z
		 M92.106,51.389c2.463,0,4.916,0,7.388,0c6.102,0,12.204,0.052,18.31-0.014c5.108-0.071,6.884-1.918,6.898-6.82
		c0-7.376-0.06-14.782,0.023-22.147c0.019-1.771-0.211-2.769-2.307-2.52c-1.529,0.206-3.163-0.17-3.644-1.856
		c-1.437-4.678-5.172-5.648-9.255-5.697c-11.315-0.117-22.612-0.046-33.963-0.032c-3.488,0.005-4.824,0.989-5.52,4.387
		c-0.485,2.188-1.657,3.378-3.854,3.198c-1.895-0.16-1.932,0.837-1.922,2.3c0.027,8.949,0.073,17.909-0.055,26.871
		c0,2.012,0.659,2.392,2.513,2.369C75.188,51.329,83.629,51.389,92.106,51.389z M165.512,140.426
		c-6.247,3.309-12.322,5.529-18.844,6.162c-1.521,0.154-1.337,1.079-1.337,2.051c0,24.917,0,49.863,0.031,74.782
		c0.032,3.283,1.479,6.047,3.406,8.646c1.579,2.165,3.557,2.477,5.945,1.846c6.349-1.653,10.762-7.351,10.808-14.162
		c0.018-21.867,0-43.755,0-65.62C165.512,149.718,165.512,145.296,165.512,140.426z M225.141,170.965
		c-0.119-0.796-0.732-1.465-1.31-2.087c-10.363-10.829-20.667-21.664-30.983-32.522c-1.52-1.579-2.907-1.761-4.536-0.201
		c-2.056,1.965-4.088,3.979-6.156,5.918c-1.556,1.421-1.556,2.767-0.097,4.295c10.4,10.903,20.791,21.81,31.181,32.708
		c0.678,0.743,1.373,1.365,2.513,1.292c1.424-0.11,9.302-7.6,9.406-8.971C225.141,171.291,225.141,171.185,225.141,170.965z
		 M94.093,4.24V4.208c-9.855,0-19.701,0-29.547,0c-6.76,0-6.76-0.014-6.76,6.646c0,4.754,0,4.688,4.843,4.782
		c1.95,0.041,3.122-0.225,3.955-2.372c1.291-3.394,4.092-5.179,7.809-5.204c12.13-0.032,24.26-0.087,36.362,0.025
		c4.225,0.046,8.175,1.556,10.431,5.161c1.4,2.224,2.911,2.52,5.054,2.366c0.791-0.048,1.551-0.075,2.33,0.005
		c1.51,0.165,2.164-0.348,2.068-1.955c-0.146-2.062-0.192-4.149,0-6.197c0.271-2.522-0.43-3.346-3.163-3.298
		C116.347,4.353,105.243,4.24,94.093,4.24z M139.801,238.705c-1.835,0.142-4.43-1.054-4.036,2.847
		c0.366,3.588,0.082,3.63,4.257,3.63c3.799,0,3.753-0.201,4.037-3.681C144.351,237.611,141.715,238.892,139.801,238.705z
		 M48.297,238.705c-1.781,0.142-4.353-1.039-3.996,2.847c0.297,3.429,0.247,3.575,4.083,3.647c2.435,0.055,4.211,0.116,4.289-3.419
		C52.782,237.931,50.572,238.729,48.297,238.705z"/>
	<path fill="#F15A23" d="M94.093,4.24c11.141,0,22.264,0.107,33.387-0.074c2.732-0.047,3.425,0.776,3.158,3.298
		c-0.192,2.053-0.146,4.135,0,6.197c0.102,1.607-0.559,2.113-2.064,1.955c-0.778-0.08-1.538-0.053-2.33-0.005
		c-2.142,0.148-3.652-0.142-5.053-2.366c-2.252-3.605-6.207-5.111-10.436-5.161C98.652,7.973,86.522,8.028,74.401,8.06
		c-3.717,0.025-6.527,1.811-7.818,5.204c-0.824,2.147-2.005,2.412-3.95,2.372c-4.848-0.094-4.848-0.019-4.848-4.782
		c0-6.664,0-6.646,6.765-6.646c9.851,0,19.701,0,29.542,0V4.24L94.093,4.24z"/>
	<path fill="#F15A23" d="M133.604,117.276c-1.593-0.019-3.089-0.464-4.426-1.369c-4.17-2.804-8.354-5.573-12.5-8.399
		c-1.19-0.792-2.774-1.65-1.621-3.511c1.154-1.926,2.609-1.054,3.996-0.121c3.914,2.639,7.833,5.283,11.788,7.864
		c2.911,1.937,4.101,1.682,6.05-1.227c7.461-11.015,14.887-22.026,22.311-33.032c0.498-0.721,0.979-1.504,1.593-2.104
		c0.828-0.778,1.858-0.746,2.709-0.112c0.866,0.655,1.126,1.63,0.587,2.648c-0.266,0.51-0.613,1.002-0.947,1.499
		c-7.594,11.258-15.183,22.504-22.754,33.785C138.73,115.645,136.688,117.258,133.604,117.276z"/>
</g>
</svg>
