<?xml version="1.0" encoding="utf-8"?>
<!-- Generator: Adobe Illustrator 16.0.0, SVG Export Plug-In . SVG Version: 6.00 Build 0)  -->
<!DOCTYPE svg PUBLIC "-//W3C//DTD SVG 1.1//EN" "http://www.w3.org/Graphics/SVG/1.1/DTD/svg11.dtd">
<svg version="1.1" id="Layer_1" xmlns="http://www.w3.org/2000/svg" xmlns:xlink="http://www.w3.org/1999/xlink" x="0px" y="0px"
	 width="250px" height="250px" viewBox="0 0 250 250" enable-background="new 0 0 250 250" xml:space="preserve">
<path fill="#515151" d="M124.437,249.984c-29.846,0-59.695,0-89.546,0c-7.769,0-10.863-3.31-10.262-11.082
	c2.272-29.162,4.584-58.305,6.832-87.467c2.059-26.714,4.034-53.443,6.068-80.161c0.65-8.596,1.264-17.172,2.091-25.736
	c0.583-6.066,3.523-8.53,9.715-8.545c11.167-0.014,22.323-0.086,33.476,0.066c2.522,0.03,3.418-0.824,4.181-3.166
	c3.519-10.745,9.06-20.225,18.966-26.325c15.378-9.477,38.521-7.297,49.937,15.484c1.814,3.645,3.143,7.563,4.396,11.464
	c0.618,1.905,1.423,2.542,3.46,2.523c11.636-0.101,23.297-0.066,34.938-0.047c7.224,0,9.961,2.307,10.59,9.558
	c1.146,13.747,2.109,27.505,3.171,41.249c1.301,16.878,2.614,33.738,3.916,50.614c1.257,16.277,2.475,32.563,3.729,48.854
	c1.271,16.789,2.602,33.545,3.877,50.316c0.11,1.659,0.311,3.328,0.178,4.984c-0.334,4.568-4.018,7.4-9.592,7.422
	c-19.569,0.02-39.135,0-58.722,0C145.38,249.984,134.907,249.984,124.437,249.984z M157.88,41.283c-23.052,0-45.737,0-68.764,0
	c-0.522,3.082-0.989,6.146-1.588,9.197c-0.326,1.659,0.02,2.542,1.703,3.381c4.65,2.297,6.508,7.459,4.689,12.183
	c-1.622,4.196-5.593,6.608-10.247,6.201c-4.182-0.368-7.793-3.609-8.564-7.659c-0.879-4.593,1.327-8.971,5.489-10.976
	c0.921-0.422,2.361-0.935,2.499-1.624c0.719-3.478,1.074-7.016,1.592-10.805c-12.593,0-24.815-0.071-37.029,0.046
	c-2.28,0.034-3.693,1.561-3.88,4.005c-0.527,6.838-1.126,13.658-1.648,20.484c-1.256,16.382-2.476,32.764-3.728,49.148
	c-1.298,16.979-2.618,33.929-3.94,50.909c-1.08,13.929-2.181,27.892-3.261,41.834c-0.854,10.992-1.688,22.024-2.557,33.026
	c-0.177,2.181,0.375,4.017,2.557,4.74c1.247,0.435,2.68,0.435,4.037,0.435c59.305,0.021,118.613,0.021,177.926,0.021
	c6.322,0,7.289-1.218,6.771-7.47c-1.396-16.756-2.619-33.562-3.938-50.314c-1.246-16.283-2.445-32.597-3.715-48.87
	c-1.303-16.768-2.6-33.547-3.896-50.339c-1.096-14.136-2.154-28.273-3.313-42.405c-0.354-4.375-1.547-5.295-6.01-5.295
	c-11.346-0.02-22.713-0.02-34.045,0c-0.926,0-1.84,0.146-2.813,0.23c0.385,3.16,0.775,5.97,1.032,8.77
	c0.166,1.708,0.75,2.658,2.541,3.381c5.546,2.226,7.606,8.871,4.594,13.987c-2.12,3.607-6.237,5.396-10.59,4.591
	c-3.804-0.688-6.892-3.919-7.628-7.99c-0.707-3.918,1.346-8.051,4.902-10.201c0.869-0.522,2.176-1.489,2.135-2.181
	C158.95,48.269,158.355,44.827,157.88,41.283z M156.707,36.837c-2.615-9.413-6.439-17.923-14.134-23.977
	c-9.203-7.217-19.54-8.313-30.144-3.87c-12.247,5.151-18.107,15.644-22.067,27.847C112.666,36.837,134.555,36.837,156.707,36.837z
	 M163.863,57.552c0,1.656,0.225,3.065-0.09,4.361c-0.215,0.935-1.129,1.705-1.729,2.537c-0.756-0.803-1.94-1.507-2.196-2.476
	c-0.386-1.298-0.107-2.805-0.107-4.444c-3.098,1.77-4.083,3.825-3.354,6.414c0.729,2.653,2.854,4.246,5.608,4.179
	c2.743-0.063,4.839-1.818,5.368-4.476C167.966,60.833,166.945,58.973,163.863,57.552z M82.718,57.682
	c-2.753,0.984-4.024,3.131-3.568,5.838c0.437,2.555,2.67,4.495,5.308,4.608c2.788,0.118,5.291-1.742,5.828-4.316
	c0.589-2.768-0.518-4.868-3.512-6.115c0,1.688,0.216,3.266-0.095,4.724c-0.172,0.79-1.256,1.376-1.941,2.071
	c-0.672-0.709-1.762-1.313-1.928-2.115C82.493,60.894,82.718,59.285,82.718,57.682z"/>
<path fill="#515151" d="M124.868,227.525c-36.587,1.74-68.543-28.041-70.271-65.476c-1.726-37.234,27.755-69.263,65.351-71.018
	c37.8-1.759,69.75,27.766,71.074,66.379C192.316,194.979,162.615,226.271,124.868,227.525z M186.988,159.702
	c0.623-34.659-28.143-63.978-63.361-64.591c-34.943-0.624-64.338,28.042-64.935,63.313c-0.583,35.159,27.741,64.125,63.538,64.959
	C157.046,224.199,186.34,195.391,186.988,159.702z"/>
<path fill="#F15A23" stroke="#515151" stroke-width="4" stroke-miterlimit="10" d="M154.24,181.049l6.024-9.215l-21.62-27.287
	l8.554-13.085c2.175-2.21,2.146-5.766-0.064-7.94c-2.209-2.174-5.764-2.146-7.94,0.064c-0.522,0.531-0.934,1.16-1.211,1.852
	l-8.554,13.085l-33.669-8.856l-6.024,9.215l27.645,18.072l-12.048,18.43l-12.227-1.417l-3.012,4.607l27.645,18.073l3.012-4.607
	l-6.203-10.633l12.048-18.43L154.24,181.049z"/>
</svg>
