<?xml version="1.0" encoding="utf-8"?>
<!-- Generator: Adobe Illustrator 16.0.0, SVG Export Plug-In . SVG Version: 6.00 Build 0)  -->
<!DOCTYPE svg PUBLIC "-//W3C//DTD SVG 1.1//EN" "http://www.w3.org/Graphics/SVG/1.1/DTD/svg11.dtd">
<svg version="1.1" id="Layer_1" xmlns="http://www.w3.org/2000/svg" xmlns:xlink="http://www.w3.org/1999/xlink" x="0px" y="0px"
	 width="711.392px" height="673px" viewBox="0 0 711.392 673" enable-background="new 0 0 711.392 673" xml:space="preserve">
<path fill-rule="evenodd" clip-rule="evenodd" fill="#515151" d="M687.302,207.088c-2.644-34.841-34.182-63.968-69.231-64.178
	c-50.425-0.304-100.853-0.021-151.278-0.093c-18.389-0.027-34.579,5.767-47.99,18.303c-16.66,15.576-26.191,33.836-23.211,57.848
	c4.528,36.46,7.883,73.069,11.705,109.618c3.791,36.265,7.464,72.544,11.337,108.801c3.019,28.253,6.325,56.474,9.396,84.72
	c3.899,35.845,7.61,71.709,11.572,107.547c1.214,10.99,2.48,11.856,13.537,11.859c29.146,0.005,58.291,0.001,87.437-0.004
	c29.84-0.007,59.679,0.016,89.519-0.021c8.938-0.013,10.762-1.911,11.683-10.812c2.857-27.588,5.731-55.175,8.754-82.743
	c6.694-61.04,13.573-122.059,20.203-183.104c4.74-43.646,9.188-87.323,13.795-130.983
	C685.472,224.915,687.97,215.886,687.302,207.088z M411.202,195.363c7.736-21.576,29.947-38.324,52.793-38.455
	c51.332-0.29,102.669-0.358,154.001,0.007c25.474,0.182,50.071,21.047,54.051,45.067c-2.09,0-4.095,0.001-6.101,0
	c-83.475-0.023-166.949-0.122-250.424,0.08C409.013,202.078,409.583,199.88,411.202,195.363z M672.158,220.757
	c-4.649,40.63-9.079,81.29-13.271,121.971c-0.476,4.62-2.043,5.525-6.259,5.45c-0.679-0.012-1.358-0.015-2.037-0.026
	c0.396,4.638,0.621,9.254,0.53,13.806c3.723-0.042,5.284,0.623,4.796,4.926c-2.315,20.399-4.303,40.837-6.446,61.256
	c-0.604,5.734-1.663,11.441-1.902,17.188c-0.094,2.279-0.637,3.47-1.84,4.037c0.756,5.008,0.376,10.168-0.942,15.047
	c0.794,0.691,1.056,1.939,0.815,4.127c-5.615,50.978-11.082,101.972-16.407,152.98c-0.483,4.634-2.027,6.176-6.794,6.137
	c-27.28-0.218-54.563-0.105-81.847-0.105c-26.589-0.002-53.181-0.199-79.766,0.149c-6.081,0.079-7.508-1.776-8.11-7.659
	c-5.064-49.41-10.547-98.775-15.961-148.147c-0.587-5.356-0.829-7.2,1.408-7.843c-0.363-4.667-0.042-9.444,0.682-14.231
	c-3.376-0.357-4.644-2.208-5.022-5.974c-1.846-18.363-3.827-36.712-5.774-55.066c-0.778-7.339-1.429-14.699-2.473-22.001
	c-0.509-3.56,0.126-4.974,4.09-4.836c0.851,0.03,1.702,0.036,2.554,0.056c-0.784-4.434-1.101-9.111-1.155-13.812
	c-0.723,0.019-1.446,0.022-2.169,0.044c-4.937,0.149-5.697-2.105-6.105-5.963c-3.713-35.158-7.512-70.308-11.276-105.46
	c-0.54-5.054-0.704-10.174-1.629-15.156c-0.953-5.131,1.007-6.589,5.69-5.764c0.224,0.039,0.463,0.005,0.693,0.005
	c41.625,0,83.249,0,124.875,0c0,0.044,0,0.089,0,0.134c41.854,0,83.71,0.015,125.566-0.025
	C670.021,215.997,672.777,215.345,672.158,220.757z"/>
<path fill-rule="evenodd" clip-rule="evenodd" fill="#515151" d="M209.387,558.421c48.344,0.004,96.689-0.004,145.033,0.011
	c10.31,0.005,11.567,1.367,11.169,11.755c-1.515,39.393-35.435,70.975-77.703,71.319c-52.272,0.425-104.553,0.389-156.827,0.019
	c-43.768-0.31-75.248-30.143-79.125-74.045c-0.588-6.663,1.806-9.053,9.648-9.067c28.218-0.052,56.438-0.003,84.657,0.002
	C167.288,558.418,188.338,558.416,209.387,558.421z M209.461,572.365c-45.307,0-90.615,0.113-135.92-0.135
	c-6.146-0.032-7.369,1.516-5.871,7.33c7.33,28.453,31.23,47.704,61.905,47.956c52.931,0.434,105.871,0.397,158.803,0.026
	c30.207-0.212,54.817-19.609,61.662-47.303c1.94-7.851,1.94-7.875-6.045-7.877C299.15,572.355,254.307,572.359,209.461,572.365z"/>
<path fill-rule="evenodd" clip-rule="evenodd" fill="#515151" d="M208.598,440.779c-47.655,0-95.312-0.201-142.964,0.146
	c-11.591,0.084-14.649-2.037-13.029-14.257c4.499-33.952,26.678-59.427,59.933-67.172c5.627-1.31,11.366-2.002,17.18-2
	c52.745,0.024,105.49-0.143,158.233,0.075c39.125,0.161,69.977,26.271,77.011,64.576c0.126,0.682,0.316,1.359,0.363,2.047
	c0.924,13.343,1.941,16.834-14.455,16.732c-47.422-0.293-94.847-0.104-142.271-0.104
	C208.598,440.81,208.598,440.795,208.598,440.779z M209.283,426.793c0,0.022,0,0.047,0,0.07c45.574,0,91.147-0.047,136.72,0.074
	c4.327,0.011,5.928-0.391,4.819-5.538c-6.046-28.066-30.462-49.374-59.833-49.677c-54.589-0.567-109.192-0.525-163.782-0.033
	c-28.844,0.26-53.175,21.102-59.677,49.027c-1.132,4.863-0.223,6.222,5.033,6.197C118.135,426.703,163.709,426.793,209.283,426.793z
	"/>
<polyline fill="none" stroke="#515151" stroke-width="15" stroke-miterlimit="10" points="537.892,143 537.892,100.084 
	608.687,58.382 "/>
<path fill="#F15A23" d="M43.773,490.229c1.055-5.16,3.285-9.917,6.754-13.251c6.994-6.72,15.973-2.292,24.556-2.397
	c26.806-0.329,53.666-1.092,80.509-0.646c7.271,0.121,14.533,0.066,21.8,0.066h184l14.667,16.201l3.333,14.258l-10,19.271
	c-28.947,0.635-57.896,1.412-86.846,1.908c-51.088,0.875-102.184,2.968-153.276,3.249c-10.543,0.058-20.985,0.688-31.511,1.17
	c-16.229,0.744-41.644-1.281-50.916-17.158C43.273,506.786,42.175,498.046,43.773,490.229z"/>
<path fill-rule="evenodd" clip-rule="evenodd" fill="#515151" d="M208.617,535.199c-47.85-0.002-95.702,0.146-143.553-0.063
	c-24.548-0.108-41.247-22.69-33.984-45.734c4.868-15.444,16.472-22.702,31.978-24.549c2.287-0.272,4.614-0.282,6.923-0.282
	c93.391-0.014,186.782-0.033,280.173,0.006c19.623,0.008,33.585,11.074,37.794,29.025c4.12,17.569-9.766,37.057-25.484,40.228
	c-5.496,1.108-10.981,1.379-16.534,1.377C300.159,535.199,254.388,535.202,208.617,535.199z M209.402,521.288
	c5.783,0,11.564,0,17.346-0.001c41.861-0.006,83.723,0.056,125.583-0.053c13.657-0.037,22.003-8.717,21.855-22.167
	c-0.142-12.798-9.224-20.58-24.27-20.584c-76.089-0.021-152.18-0.001-228.269,0.004c-18.041,0.001-36.08-0.029-54.119,0.011
	c-10.016,0.023-18.267,3.467-22.395,13.2c-6.267,14.773,4.32,29.501,21.339,29.544C114.116,521.364,161.759,521.285,209.402,521.288
	z"/>
</svg>
