<?xml version="1.0" encoding="utf-8"?>
<!-- Generator: Adobe Illustrator 16.0.0, SVG Export Plug-In . SVG Version: 6.00 Build 0)  -->
<!DOCTYPE svg PUBLIC "-//W3C//DTD SVG 1.1//EN" "http://www.w3.org/Graphics/SVG/1.1/DTD/svg11.dtd">
<svg version="1.1" id="Layer_1" xmlns="http://www.w3.org/2000/svg" xmlns:xlink="http://www.w3.org/1999/xlink" x="0px" y="0px"
	 width="250px" height="250px" viewBox="0 0 250 250" enable-background="new 0 0 250 250" xml:space="preserve">
<path fill="#515151" d="M203.295,189.031c-9.708,3.49-18.913,2.635-27.545-3.178c-1.097-0.75-2.132-1.605-3.173-2.426
	c-0.518-0.502-0.989-0.998-1.501-1.512c-1.18-1.635-2.317-3.291-3.507-4.92c-0.144-0.395-0.133-0.902-0.63-1.117
	c-0.805-2.076-1.635-4.143-2.43-6.232c-0.128-0.145-0.303-0.303-0.446-0.447c-2.921-0.916-5.853-0.332-8.79-0.332
	c-0.846,0-1.696,0-2.537,0c-2.512,0-5.054,0-7.575,0.01c-0.841-0.01-1.687-0.01-2.517-0.01c-2.527,0-5.059,0.01-7.581,0.01
	c-0.851,0-1.691-0.01-2.532-0.01c-2.521,0-5.048,0.01-7.575,0.01c-0.833,0-1.679-0.01-2.524-0.01c-2.524,0-5.054,0.01-7.578,0.01
	c-0.851,0-1.696-0.01-2.54-0.01c-2.524,0-5.054,0.01-7.581,0.01c-0.843,0-1.679-0.01-2.524-0.01c-2.529,0-5.054,0-7.583,0
	c-0.846,0-1.689,0-2.535,0c-2.609-0.041-5.228,0.035-7.822-0.123c-2.073-0.113-2.891,0.768-3.557,2.664
	c-3.716,10.627-11.091,17.207-22.229,19.293c-13.103,2.439-26.699-5.557-31.112-18.123c-1.348-3.85-1.348-3.85-5.474-3.859
	c-4.126-0.012-8.257,0.076-12.324-0.836c-4.723-1.045-7.924-3.896-9.536-8.438c-0.912-2.604-1.553-5.248-1.497-8.088
	c0.11-7.574-0.221-15.187,0.11-22.757c0.31-7.099,2.755-13.444,8.529-18.093c2.309-1.866,4.908-3.239,7.558-4.521
	c0.174-0.115,0.343-0.221,0.515-0.331h-0.074c1.34-0.426,2.667-0.843,3.995-1.279c3.385-0.94,6.771-1.876,10.156-2.814
	c1.223,0.136,2.309-0.457,3.465-0.661c3.247-0.767,6.561-1.292,9.697-2.504c0.174-0.115,0.331-0.231,0.505-0.331l0,0
	c0.992-0.069,1.699-0.7,2.366-1.302c8.016-7.353,16.009-14.744,24.003-22.117c1.979-1.796,4.067-3.475,5.899-5.407
	c4.377-4.598,9.721-7.488,15.756-9.206c1.207-0.215,2.445-0.31,3.555-0.912c6.622-1.051,13.198-2.437,19.864-3.26
	c12.575-1.568,25.177-1.728,37.806-1.077c11.522,0.61,22.881,2.194,33.916,5.774c14.382,4.667,26.146,12.806,34.762,25.356
	c0.86,1.243,1.85,2.404,2.645,3.678c3.419,5.513,7.55,9.885,13.916,12.389c7.196,2.811,11.051,8.985,12.854,16.407
	c0.215,0.876,0.174,1.83,0.174,2.755c0,9.587-0.046,19.198-0.056,28.788c-0.016,9.805-4.383,15.684-13.793,18.523
	c-0.994,0.123-2.02,0.287-3.04,0.43c-4.085-0.029-8.205-0.02-12.301-0.07c-1.066-0.037-1.604,0.234-1.907,1.393
	c-1.583,5.701-4.689,10.488-9.051,14.449c-0.144,0.139-0.313,0.268-0.457,0.395c-0.354,0.303-0.737,0.605-1.106,0.902
	C206.985,186.949,205.14,187.99,203.295,189.031z M167.975,147.605c0.128-0.205,0.277-0.41,0.41-0.615
	c0.107-0.111,0.221-0.266,0.317-0.389c2.056-2.789,4.511-5.156,7.294-7.207c0.646-0.373,1.302-0.748,1.947-1.107
	c10.211-5.816,22.179-4.955,31.451,2.256c7.114,5.535,10.322,13.008,11.045,21.773c0.077,0.975-0.025,1.82,1.42,1.742
	c4.459-0.143,8.939,0.277,13.378-0.313c5.551-0.707,9.912-5.105,9.979-10.635c0.185-11.467,0.087-22.906,0.056-34.354
	c0-2.35-0.881-4.482-2.48-6.173c-3.188-3.394-6.684-6.458-11.169-8.004c-4.484-1.553-7.324-4.587-9.641-8.654
	c-6.565-11.504-15.612-20.62-27.478-26.704c-11.969-6.135-25.121-7.647-38.222-9.075c-12.014-1.307-24.069-1.192-36.071,0.01
	c-7.258,0.72-14.523,1.533-21.596,3.465c-1.477-0.021-2.873,0.367-4.211,0.951c-3.911,0.743-7.599,2.066-10.963,4.239
	c-0.31-0.066-0.441,0.126-0.515,0.39c-0.195,0.105-0.39,0.21-0.571,0.31c-1.097,0.766-2.268,1.443-3.281,2.309
	c-9.41,8.05-18.213,16.737-27.068,25.387c-0.928,0.851-1.979,1.589-2.77,2.561c-2.225,2.714-5.164,3.831-8.519,4.315
	c-2.824,0.397-5.638,0.933-8.413,1.563c-8.052,1.807-15.902,4.116-22.673,9.139c-3.649,2.696-5.89,6.166-5.91,10.838
	c-0.038,6.816-0.069,13.633-0.105,20.445c0.01,0.836,0.021,1.686,0.021,2.527c0.021,2.352,0.057,4.709,0.084,7.068
	c-0.084,0.943,0.21,1.803,0.662,2.604c0.592,1.855,1.768,3.229,3.552,4.049c0.766,0.691,1.658,1.016,2.688,0.928
	c4.218,0.979,8.539,0.354,12.786,0.918c1.648,0.221,1.884-0.416,1.979-1.877c0.22-3.516,0.822-6.98,2.204-10.271
	c3.57-8.416,9.867-13.757,18.421-16.617c1.02-0.179,2.037-0.354,3.055-0.543c2.663-0.271,5.344-0.481,8.032-0.221
	c0.651,0.385,1.358,0.334,2.079,0.293c1.832,0.563,3.662,1.138,5.5,1.707c0.39,0.179,0.792,0.354,1.182,0.537
	c1.589,0.984,3.19,1.959,4.782,2.938c0.562,0.477,1.133,0.947,1.694,1.42c1.166,1.205,2.33,2.389,3.496,3.594
	c0.251,0.354,0.505,0.711,0.761,1.07c0.971,1.65,1.942,3.311,2.903,4.961c0.203,0.549,0.413,1.066,0.613,1.6
	c0.53,2.041,1.056,4.059,1.581,6.105c0.11,0.805,0.226,1.623,0.341,2.434c0.021,0.678,0.031,1.354,0.051,2.02
	c-0.105,0.328,0.021,0.451,0.359,0.391c2.024,0.01,4.046,0.01,6.056,0.029c0.851,0,1.694,0.012,2.54,0.012
	c2.699,0,5.385-0.012,8.088-0.012c0.671,0,1.348,0.012,2.037,0.012c2.686,0,5.385-0.012,8.088-0.012
	c0.671,0,1.348,0.012,2.024,0.012c2.699,0,5.387-0.012,8.083-0.012c0.671,0,1.351,0.012,2.038,0.012
	c2.524,0,5.043-0.012,7.568-0.012c0.854,0,1.693,0.012,2.539,0.012c2.701,0,5.377-0.012,8.083-0.012c0.677,0,1.354,0.012,2.04,0.012
	c2.522,0,5.054-0.012,7.565-0.012c0.846,0,1.696,0.012,2.542,0.012c3.444,0.039,6.89,0.01,10.354,0.111
	c1.25,0.037,1.619-0.451,1.64-1.6C163.808,156.945,165.576,152.178,167.975,147.605z M30.3,162.9
	c-0.136,12.584,10.543,23.404,23.145,23.465c12.739,0.098,23.751-10.605,23.887-23.146c0.136-12.85-10.487-23.783-23.303-24.004
	C41.103,138.975,30.426,149.637,30.3,162.9z M192.356,139.282c-12.649-0.308-23.454,10.175-23.813,23.11
	c-0.339,12.789,10.194,23.695,23.219,23.973c12.567,0.281,23.443-10.184,23.762-22.881
	C215.878,150.436,205.499,139.605,192.356,139.282z"/>
<path fill="#F4F4F5" d="M15.195,105.616c-0.174,0.115-0.343,0.22-0.515,0.331C14.847,105.836,15.021,105.731,15.195,105.616z"/>
<path fill="#F4F4F5" d="M42.991,98.024c-0.174,0.105-0.331,0.215-0.505,0.331C42.661,98.24,42.817,98.125,42.991,98.024z"/>
<path fill="#F4F4F5" d="M209.927,185.013c0.144-0.113,0.303-0.246,0.446-0.39C210.229,184.767,210.081,184.885,209.927,185.013z"/>
<path fill="#F15A23" d="M30.3,162.901c0.125-13.245,10.807-23.927,23.729-23.7c12.816,0.22,23.439,11.152,23.303,24.002
	c-0.136,12.553-11.153,23.244-23.887,23.163C40.838,186.305,30.165,175.484,30.3,162.901z"/>
<path fill="#F15A23" d="M192.356,139.283c13.152,0.332,23.521,11.152,23.168,24.202c-0.328,12.696-11.21,23.162-23.762,22.881
	c-13.009-0.287-23.558-11.185-23.219-23.973C168.902,149.457,179.707,138.975,192.356,139.283z"/>
<path fill="#F7F9FA" d="M151.711,163.686c4.736-5.946,10.17-11.23,16.013-16.068c0.057-0.062,0.164-0.011,0.251-0.011
	c-2.398,4.572-4.167,9.323-4.27,14.572c-0.01,1.163-0.379,1.645-1.635,1.614C158.621,163.695,155.166,163.716,151.711,163.686z"/>
<path fill="#EFF1F2" d="M83.437,68.796c-0.169,0.125-0.341,0.251-0.515,0.39C82.991,68.922,83.126,68.729,83.437,68.796z"/>
<path fill="#EFF1F2" d="M82.071,163.255c0.115,0.128,0.23,0.271,0.356,0.39C82.097,163.706,81.971,163.578,82.071,163.255z"/>
<path fill="#F7F9FA" d="M168.385,146.991c0.107-0.128,0.221-0.267,0.317-0.404C168.605,146.725,168.492,146.863,168.385,146.991z"/>
<path fill="#515151" d="M128.441,104.77c-0.833-0.01-1.679-0.01-2.514-0.021c-15.872-0.039-31.728-0.069-47.604-0.084
	c-3.521-0.011-7.042,0.059-10.566,0.105c-0.833-0.01-1.684-0.01-2.514-0.021c-2.15,0-4.298,0-7.006,0
	c9.333-9.805,19.472-17.85,28.331-27.219c5.628-5.098,12.709-6.591,19.841-7.793c9.567-1.591,19.221-2.058,28.9-2.047
	c3.096,0,3.239,0.174,3.25,3.316c0.021,10.351,0.051,20.712,0.062,31.056c-0.062,0.799-0.129,1.612-0.195,2.424l0,0
	C135.095,104.575,131.773,104.665,128.441,104.77z M71.599,99.947c20.343,0,40.22-0.021,60.102,0.046
	c1.717,0,1.866-0.697,1.855-2.083c-0.051-7.578-0.092-15.161,0.021-22.742c0.021-1.899-0.364-2.501-2.419-2.524
	c-8.772-0.056-17.465,0.846-26.13,2.184c-7.102,1.097-13.417,3.649-18.16,9.354c-1.117,1.348-2.55,2.445-3.89,3.606
	C78.839,91.333,75.033,95.188,71.599,99.947z"/>
<path fill="#515151" d="M148.677,104.634c-0.317-0.41-0.614-0.825-0.922-1.235c-0.062-2.125-0.093-4.265-0.113-6.392
	c0-0.851,0-1.694,0-2.54c0.025-7.568,0.057-15.139,0.066-22.722c0.016-3.647,0.528-4.036,4.101-3.842
	c11.646,0.661,23.039,2.54,33.731,7.432c11.147,5.1,20.83,11.989,26.576,23.293c0.948,1.878,1.758,3.801,2.25,5.856
	c-0.738,0.095-1.466,0.264-2.22,0.264c-20.23,0.041-40.481,0.079-60.701,0.105c-0.759,0-1.518-0.074-2.271-0.095
	C149.01,104.711,148.841,104.665,148.677,104.634z M207.057,99.911c-1.578-3.176-3.29-5.659-5.438-7.801
	c-13.147-13.011-29.462-18.101-47.468-18.993c-1.655-0.08-1.445,0.892-1.445,1.899c0.015,7.578,0.071,15.159-0.031,22.732
	c-0.025,1.832,0.544,2.209,2.276,2.193c10.44-0.079,20.886-0.03,31.316-0.03C193.054,99.911,199.851,99.911,207.057,99.911z"/>
</svg>
