<?xml version="1.0" encoding="utf-8"?>
<!-- Generator: Adobe Illustrator 16.0.0, SVG Export Plug-In . SVG Version: 6.00 Build 0)  -->
<!DOCTYPE svg PUBLIC "-//W3C//DTD SVG 1.1//EN" "http://www.w3.org/Graphics/SVG/1.1/DTD/svg11.dtd">
<svg version="1.1" id="Layer_1" xmlns="http://www.w3.org/2000/svg" xmlns:xlink="http://www.w3.org/1999/xlink" x="0px" y="0px"
	 width="60px" height="60px" viewBox="0 0 60 60" enable-background="new 0 0 60 60" xml:space="preserve">
<path fill-rule="evenodd" clip-rule="evenodd" fill="#515151" d="M46.147,12.747c0.24,0.334,0.48,0.668,0.722,1.003
	c0.076,0.18,0.168,0.348,0.321,0.476c0.218,0.359,0.436,0.717,0.653,1.076c0.046,0.159,0.106,0.306,0.24,0.413
	c0.182,0.352,0.363,0.705,0.547,1.057c1.272,2.773,2.075,5.668,2.309,8.714c0.008,0.151,0.016,0.304,0.022,0.455
	c0.016,0.564,0.027,1.125,0.041,1.689c-0.075,0.186-0.06,0.376-0.033,0.567c-0.084,0.866-0.168,1.731-0.252,2.596
	c-0.643,3.749-2.025,7.187-4.276,10.266c-0.043,0.061-0.151,0.132-0.043,0.229c0.105,0.2,0.271,0.346,0.455,0.468
	c0.222,0.224,0.443,0.445,0.667,0.667c0.12,0.189,0.273,0.342,0.461,0.463c0.224,0.222,0.445,0.443,0.669,0.667
	c0.118,0.187,0.271,0.34,0.46,0.46c0.224,0.222,0.445,0.445,0.667,0.667c0.122,0.188,0.275,0.342,0.463,0.463
	c1.812,1.823,3.631,3.641,5.433,5.471c1.737,1.768,1.274,4.571-0.911,5.63c-1.348,0.651-2.897,0.363-4.032-0.767
	c-1.676-1.67-3.345-3.348-5.019-5.02c-0.132-0.13-0.275-0.251-0.413-0.375c-0.119-0.188-0.273-0.34-0.46-0.46
	c-0.191-0.255-0.414-0.479-0.668-0.667c-0.12-0.188-0.273-0.343-0.462-0.463c-0.19-0.254-0.412-0.476-0.667-0.667
	c-0.12-0.188-0.273-0.342-0.461-0.46c-0.19-0.255-0.413-0.479-0.667-0.667c-0.124-0.186-0.268-0.351-0.468-0.457
	c-0.065-0.086-0.129-0.028-0.183,0.012c-1.22,0.911-2.552,1.634-3.889,2.351c-0.354,0.101-0.687,0.252-1.004,0.438
	c-0.868,0.308-1.737,0.615-2.606,0.921c-0.258,0.062-0.514,0.122-0.772,0.184c-0.681,0.14-1.36,0.276-2.041,0.416
	c-0.226,0.035-0.453,0.069-0.679,0.104c-1.385,0.112-2.772,0.195-4.164,0.126c-1.79-0.09-3.544-0.376-5.269-0.859
	c-0.125-0.035-0.255-0.05-0.383-0.075c-0.189-0.064-0.378-0.132-0.567-0.198c-0.373-0.128-0.746-0.256-1.119-0.385
	c-0.134-0.11-0.289-0.17-0.46-0.188c-0.374-0.161-0.747-0.323-1.121-0.485c-0.052-0.105-0.16-0.1-0.252-0.123
	c-0.354-0.183-0.709-0.366-1.063-0.55c-0.107-0.13-0.252-0.195-0.411-0.239c-0.359-0.218-0.719-0.438-1.078-0.655
	c-0.129-0.151-0.296-0.244-0.476-0.321c-0.334-0.238-0.669-0.479-1.003-0.72c-0.053-0.096-0.128-0.165-0.237-0.191
	c-0.283-0.233-0.566-0.467-0.848-0.699c-0.129-0.109-0.258-0.22-0.387-0.331c-0.27-0.256-0.541-0.512-0.81-0.769
	c-0.11-0.11-0.22-0.224-0.33-0.334c-1.642-1.77-3.06-3.696-4.164-5.852c-4.272-8.334-3.083-18.733,2.973-25.881
	c0.084-0.101,0.159-0.208,0.24-0.312c0.813-0.814,1.626-1.626,2.439-2.44c2.513-2.108,5.294-3.748,8.447-4.682
	C27.114,2.462,33.649,3.29,39.807,7.01c0.127,0.076,0.26,0.143,0.391,0.214c0.025,0.092,0.099,0.107,0.177,0.117
	c1.205,0.864,2.36,1.789,3.45,2.794c0.111,0.111,0.223,0.22,0.334,0.331c0.256,0.27,0.513,0.539,0.77,0.81
	c0.109,0.128,0.22,0.258,0.33,0.388c0.233,0.281,0.467,0.563,0.699,0.846C46.021,12.588,46.085,12.667,46.147,12.747z
	 M25.258,10.498c-0.715,0.065-1.424,0.168-2.105,0.411c-0.24-0.014-0.451,0.09-0.67,0.162c-5.674,1.829-9.427,5.58-11.255,11.256
	c-0.073,0.218-0.175,0.43-0.164,0.669c-0.239,0.659-0.333,1.347-0.404,2.039c-0.021,0.266-0.042,0.531-0.064,0.797
	c-0.122,0.558-0.076,1.122-0.056,1.686c0.005,0.189,0.011,0.378,0.017,0.568c0.013,0.496,0.04,0.991,0.167,1.475
	c-0.007,0.195,0.002,0.389,0.085,0.57c0.047,0.458,0.146,0.903,0.296,1.337c0.044,0.157,0.087,0.313,0.131,0.471
	c0.108,0.42,0.227,0.837,0.43,1.223c0.026,0.17,0.073,0.331,0.194,0.459c0.106,0.359,0.244,0.705,0.466,1.011
	c0.055,0.229,0.16,0.432,0.32,0.604c0.143,0.355,0.333,0.685,0.585,0.975c0.066,0.189,0.163,0.355,0.325,0.479
	c0.143,0.291,0.328,0.549,0.567,0.767c0.08,0.176,0.191,0.327,0.353,0.438c0.204,0.312,0.454,0.583,0.74,0.82
	c0.087,0.154,0.204,0.28,0.36,0.368c0.241,0.279,0.5,0.539,0.813,0.74c0.064,0.122,0.16,0.206,0.293,0.246
	c0.313,0.317,0.662,0.583,1.054,0.793c0.076,0.126,0.193,0.195,0.333,0.229c0.341,0.287,0.723,0.509,1.131,0.687
	c0.094,0.103,0.205,0.176,0.349,0.187c0.302,0.211,0.626,0.375,0.982,0.469c0.164,0.15,0.372,0.204,0.58,0.254
	c0.399,0.199,0.812,0.357,1.254,0.432c0.091,0.111,0.218,0.098,0.341,0.098c0.469,0.197,0.957,0.319,1.468,0.344
	c0.135,0.113,0.294,0.102,0.455,0.092c0.475,0.138,0.964,0.157,1.454,0.169c0.226,0.086,0.458,0.064,0.691,0.046
	c0.525,0.028,1.051,0.049,1.576-0.029c0.232,0.03,0.457-0.01,0.68-0.068c0.693-0.02,1.369-0.136,2.03-0.345
	c0.283,0.002,0.547-0.074,0.793-0.206c0.129-0.026,0.261-0.04,0.384-0.078c3.472-1.101,6.312-3.107,8.49-6.021
	c1.222-1.634,2.161-3.419,2.646-5.42c0.132-0.246,0.208-0.51,0.206-0.793c0.208-0.661,0.325-1.338,0.344-2.029
	c0.06-0.224,0.101-0.449,0.07-0.681c0.077-0.525,0.057-1.051,0.027-1.576c0.021-0.233,0.039-0.466-0.045-0.692
	c-0.012-0.489-0.031-0.979-0.169-1.453c0.011-0.16,0.021-0.321-0.093-0.457c-0.023-0.508-0.146-0.998-0.343-1.466
	c0.001-0.124,0.013-0.25-0.098-0.342c-0.073-0.441-0.233-0.854-0.431-1.254c-0.051-0.207-0.104-0.415-0.254-0.579
	c-0.094-0.357-0.26-0.68-0.47-0.982c-0.011-0.144-0.083-0.254-0.188-0.35c-0.177-0.407-0.399-0.787-0.685-1.129
	c-0.035-0.141-0.104-0.258-0.231-0.334c-0.21-0.392-0.476-0.744-0.793-1.055c-0.039-0.134-0.123-0.228-0.245-0.292
	c-0.199-0.313-0.46-0.569-0.739-0.812c-0.09-0.153-0.212-0.273-0.369-0.359c-0.237-0.287-0.508-0.539-0.82-0.741
	c-0.111-0.163-0.262-0.273-0.438-0.354c-0.219-0.239-0.477-0.424-0.766-0.566c-0.124-0.162-0.291-0.26-0.48-0.325
	c-0.289-0.252-0.617-0.441-0.973-0.585c-0.174-0.162-0.377-0.266-0.605-0.321c-0.307-0.222-0.652-0.361-1.012-0.466
	c-0.129-0.121-0.289-0.168-0.457-0.195c-0.389-0.203-0.805-0.321-1.225-0.43c-0.156-0.044-0.313-0.086-0.469-0.13
	c-0.436-0.151-0.882-0.249-1.34-0.298c-0.181-0.08-0.374-0.092-0.568-0.084c-0.483-0.126-0.979-0.153-1.474-0.166
	c-0.189-0.006-0.378-0.012-0.568-0.018c-0.563-0.019-1.128-0.067-1.688,0.056C25.745,10.459,25.501,10.479,25.258,10.498z"/>
</svg>
