<?xml version="1.0" encoding="utf-8"?>
<!-- Generator: Adobe Illustrator 16.0.0, SVG Export Plug-In . SVG Version: 6.00 Build 0)  -->
<!DOCTYPE svg PUBLIC "-//W3C//DTD SVG 1.1//EN" "http://www.w3.org/Graphics/SVG/1.1/DTD/svg11.dtd">
<svg version="1.1" id="Layer_1" xmlns="http://www.w3.org/2000/svg" xmlns:xlink="http://www.w3.org/1999/xlink" x="0px" y="0px"
	 width="500px" height="509px" viewBox="0 0 500 509" enable-background="new 0 0 500 509" xml:space="preserve">
<path fill="#F15A23" stroke="#515151" stroke-width="8" stroke-miterlimit="10" d="M368.254,172.615v-20l-60-20v-28.4
	c1.11-5.523-2.467-10.9-7.99-12.01c-5.521-1.11-10.898,2.467-12.01,7.99c-0.268,1.327-0.268,2.693,0,4.02v28.4l-60,20v20h60v40
	l-20,10v10h60v-10l-20-10v-40H368.254z"/>
<path fill="#515151" d="M434.188,91.589c-0.006-15.474-11.03-26.62-26.546-26.626c-100.449-0.042-200.898-0.036-301.351,0.002
	C90.558,64.97,79.566,76.072,79.562,91.762c-0.015,60.482-0.011,120.962,0.014,181.443c0,1.979,0.068,4.008,0.482,5.931
	c2.708,12.566,12.837,20.259,26.669,20.263c5.18,0.002,10.359,0,15.539-0.004c5.202-0.006,10.404-0.015,15.606-0.022
	c5.199-0.013,10.399-0.022,15.599-0.037c5.198-0.015,10.396-0.028,15.594-0.045c5.198-0.017,10.396-0.032,15.593-0.048
	c5.199-0.018,10.397-0.031,15.595-0.047c5.2-0.014,10.4-0.025,15.6-0.036c5.203-0.013,10.406-0.021,15.608-0.024
	c2.187-0.002,4.373-0.004,6.559-0.005c1.093-0.001,2.187-0.001,3.28-0.002c4.264,0,2.878-6.891,2.699-9.976
	c-6.981-0.352-14.049-0.013-21.039-0.008c-5.2,0.004-10.399,0.006-15.599,0.01c-5.199,0.007-10.398,0.011-15.598,0.016
	c-5.197,0.006-10.394,0.014-15.59,0.02c-3.14,0.006-3.929-0.771-3.75-3.814c0.282-4.789,0.111-9.605,0.063-14.412
	c-0.04-3.943-1.862-5.927-5.322-5.953c-3.529-0.023-5.314,1.865-5.359,5.87c-0.056,5.038-0.138,10.083,0.04,15.116
	c0.083,2.361-0.416,3.193-3.004,3.176c-17.579-0.122-35.159-0.041-52.738-0.072c-9.314-0.018-15.85-6.602-15.857-15.967
	c-0.021-27.542-0.008-55.083-0.008-82.625c0-32.58-0.002-65.162,0.001-97.743c0.001-10.779,6.166-16.929,16.989-16.934
	c17.111-0.008,34.223,0.063,51.333-0.064c2.632-0.019,3.42,0.611,3.298,3.283c-0.23,5.029-0.113,10.077-0.047,15.115
	c0.049,3.761,1.831,5.675,5.141,5.752c3.446,0.08,5.471-1.962,5.522-5.769c0.066-4.921,0.21-9.855-0.053-14.763
	c-0.157-2.914,0.637-3.64,3.591-3.632c38.674,0.113,77.348,0.075,116.024,0.075c37.972,0,75.946,0.243,113.915-0.145
	c11.703-0.12,17.74,8.585,17.699,17.562c-0.271,59.535-0.262,119.073-0.013,178.608c0.04,9.611-6.867,17.424-17.522,17.391
	c-5.185-0.018-10.364-0.032-15.547-0.047c-5.208-0.014-10.416-0.026-15.624-0.037c-5.209-0.012-10.417-0.021-15.625-0.029
	s-10.417-0.016-15.625-0.021c-5.208-0.004-10.416-0.01-15.624-0.014c-5.209-0.004-10.417-0.007-15.625-0.008
	c-5.208-0.002-10.417-0.003-15.625-0.002c-1.065,0-2.131,0-3.196,0c-0.887,0-1.774,0-2.661,0c-1.376,0-2.549,0-3.046,1.457
	c-0.649,1.904-0.419,4.781-0.382,6.77c0.024,1.324,0.028,1.924,1.401,2.192c1.957,0.384,4.273-0.092,6.263-0.092
	c2.603,0,5.205,0,7.809,0c5.205,0.001,10.411,0.001,15.617,0.002c5.206,0,10.411,0.001,15.617,0.001s10.412,0,15.617,0
	c5.206,0,10.412-0.001,15.618-0.001c5.204-0.001,10.409-0.002,15.615-0.004c5.206-0.001,10.411-0.003,15.617-0.007
	c3.438,0,6.872-0.002,10.31-0.004c16.067-0.01,27.165-10.932,27.17-26.717C434.209,212.317,434.213,151.953,434.188,91.589z"/>
<path fill="#515151" d="M172.489,181.47c0.002,4.446,0.054,8.892-0.015,13.336c-0.056,3.623-2.06,5.734-5.229,5.71
	c-2.952-0.023-5.395-2.447-5.42-5.711c-0.072-9.008-0.08-18.017,0.001-27.024c0.031-3.47,2.289-5.572,5.479-5.469
	c3.057,0.099,5.088,2.139,5.157,5.47C172.558,172.343,172.487,176.907,172.489,181.47z"/>
<path fill="#515151" d="M172.495,130.581c-0.001,4.334,0.041,8.669-0.014,13.002c-0.046,3.651-1.942,5.795-5.073,5.906
	c-3.217,0.113-5.567-2.202-5.594-5.81c-0.065-8.903-0.063-17.807,0.003-26.709c0.027-3.756,1.851-5.579,5.257-5.597
	c3.477-0.019,5.363,1.968,5.408,5.853C172.536,121.677,172.496,126.128,172.495,130.581z"/>
<path fill="#515151" d="M172.491,232.207c0.003,4.334,0.049,8.668-0.012,13c-0.052,3.728-1.868,5.702-5.133,5.77
	c-3.376,0.068-5.507-2.052-5.533-5.793c-0.06-8.901-0.063-17.803,0.005-26.704c0.028-3.574,2.094-5.629,5.32-5.618
	c3.209,0.012,5.271,2.104,5.331,5.641C172.546,223.069,172.488,227.639,172.491,232.207z"/>
<path fill="#515151" d="M88.781,479.422c0,0-0.875-2.156,0.109-4.406c0,0,0.75-1.422,1.969-1.938c0,0,1.047-0.609,2.516-0.75
	l148.656-0.016l-17.448-24.229c0,0-9.5-10.917-9-29.833l0.25-35.668c0,0,0.979-12.458,10.354-16.958c0,0,3.797-2.453,10.016-2.469
	c0,0,3.063,0.016,5.031,0.438c0,0,2.109,0.406,3.047,0.063c0,0,1.453-0.203,2.484-1.578c0,0,0.938-1.078,0.531-3.703l0.102-82.75
	c0,0-0.516-10.375,9.48-16.5c0,0,5.953-4.335,15.121-1.25c0,0,10.5,3.625,12.125,14.375v37.25v3.375l4.375-0.375
	c0,0,9.918-2.916,16.584,4.167c0,0,2.072,3.614,6.354,3.271c0,0,5.938-2.031,8.063-2.125c0,0,9.25-1.313,15.375,7.438
	c0,0,3,5.813,7,4.625c0,0,9.5-3.165,16.875,2.626c0,0,6.166,3.291,7.333,13.541c0,0,0.667,82.083-1.083,86.458l-4.5,34.667
	c0,0-0.833,5.5,4.5,5.417l54.583,0.249c0,0,5.668,0,5.334,3.917c0,0,0.833,4.833-4.417,5.25c-0.129,0-0.257,0-0.386,0
	c-0.13,0-0.26,0-0.39,0c-0.133,0-0.266,0-0.398,0c-0.136,0-0.272,0-0.409,0c-0.142,0-0.283,0-0.425,0c-0.147,0-0.296,0-0.444,0
	c-0.155,0-0.311,0-0.467,0c-0.164,0-0.328,0-0.493,0c-0.174,0-0.349,0-0.522,0c-0.186,0-0.37,0-0.556,0c-0.197,0-0.395,0-0.592,0
	c-0.21,0-0.421,0-0.631,0c-0.224,0-0.448,0-0.672,0c-0.239,0-0.478,0-0.717,0c-0.254,0-0.509,0-0.763,0c-0.271,0-0.541,0-0.812,0
	c-0.287,0-0.574,0-0.861,0c-0.305,0-0.609,0-0.913,0c-0.322,0-0.646,0-0.968,0c-0.34,0-0.681,0-1.021,0c-0.358,0-0.718,0-1.077,0
	c-0.378,0-0.755,0-1.133,0c-0.397,0-0.794,0-1.19,0c-0.416,0-0.832,0-1.247,0c-0.436,0-0.87,0-1.305,0c-0.454,0-0.908,0-1.362,0
	c-0.473,0-0.945,0-1.418,0c-0.492,0-0.983,0-1.476,0c-0.51,0-1.021,0-1.53,0c-0.528,0-1.058,0-1.586,0c-0.547,0-1.093,0-1.64,0
	c-0.564,0-1.128,0-1.692,0c-0.581,0-1.163,0-1.744,0c-0.599,0-1.196,0-1.795,0c-0.614,0-1.229,0-1.844,0c-0.63,0-1.261,0-1.891,0
	c-0.646,0-1.292,0-1.938,0c-0.661,0-1.321,0-1.982,0c-0.675,0-1.35,0-2.024,0c-0.688,0-1.377,0-2.065,0c-0.702,0-1.403,0-2.105,0
	c-0.714,0-1.429,0-2.144,0c-0.726,0-1.452,0-2.179,0c-0.738,0-1.477,0-2.215,0c-0.749,0-1.498,0-2.247,0c-0.759,0-1.519,0-2.278,0
	c-0.77,0-1.539,0-2.309,0c-0.779,0-1.559,0-2.337,0c-0.788,0-1.576,0-2.364,0c-0.797,0-1.594,0-2.391,0c-0.805,0-1.609,0-2.414,0
	c-0.813,0-1.625,0-2.438,0c-0.82,0-1.64,0-2.46,0c-0.827,0-1.654,0-2.48,0c-0.834,0-1.668,0-2.501,0c-0.84,0-1.68,0-2.521,0
	c-0.846,0-1.691,0-2.537,0c-0.853,0-1.704,0-2.556,0c-0.857,0-1.715,0-2.571,0c-0.863,0-1.726,0-2.588,0c-0.867,0-1.735,0-2.603,0
	c-0.872,0-1.745,0-2.617,0c-0.877,0-1.754,0-2.631,0c-0.881,0-1.763,0-2.645,0c-0.885,0-1.771,0-2.656,0c-0.89,0-1.779,0-2.67,0
	c-0.894,0-1.787,0-2.681,0c-0.897,0-1.795,0-2.692,0c-0.901,0-1.802,0-2.703,0c-0.904,0-1.809,0-2.714,0c-0.907,0-1.815,0-2.724,0
	c-0.911,0-1.821,0-2.732,0c-0.914,0-1.828,0-2.742,0c-0.917,0-1.834,0-2.751,0c-0.92,0-1.839,0-2.759,0c-0.923,0-1.845,0-2.767,0
	c-0.925,0-1.85,0-2.774,0c-0.927,0-1.854,0-2.78,0c-0.929,0-1.857,0-2.786,0c-0.931,0-1.861,0-2.792,0c-0.933,0-1.865,0-2.798,0
	c-0.934,0-1.868,0-2.802,0c-0.936,0-1.87,0-2.806,0c-0.937,0-1.873,0-2.81,0s-1.874,0-2.812,0s-1.876,0-2.813,0
	c-0.938,0-1.877,0-2.815,0s-1.878,0-2.816,0s-1.877,0-2.816,0s-1.877,0-2.816,0c-0.938,0-1.876,0-2.814,0c-0.938,0-1.875,0-2.813,0
	c-0.937,0-1.873,0-2.81,0c-0.936,0-1.871,0-2.807,0c-0.934,0-1.868,0-2.802,0c-0.933,0-1.865,0-2.797,0c-0.931,0-1.861,0-2.792,0
	c-0.928,0-1.857,0-2.785,0c-0.926,0-1.853,0-2.779,0c-0.923,0-1.847,0-2.77,0c-0.921,0-1.841,0-2.762,0c-0.917,0-1.834,0-2.752,0
	c-0.914,0-1.828,0-2.742,0c-0.91,0-1.82,0-2.73,0c-0.906,0-1.813,0-2.719,0c-0.902,0-1.804,0-2.706,0c-0.897,0-1.794,0-2.692,0
	c-0.892,0-1.785,0-2.677,0c-0.887,0-1.774,0-2.662,0c-0.881,0-1.763,0-2.645,0c-0.875,0-1.751,0-2.626,0c-0.87,0-1.739,0-2.608,0
	c-0.862,0-1.725,0-2.588,0c-0.856,0-1.711,0-2.567,0c-0.848,0-1.696,0-2.545,0c-0.84,0-1.681,0-2.521,0c-0.833,0-1.665,0-2.498,0
	c-0.824,0-1.648,0-2.472,0c-0.815,0-1.63,0-2.445,0c-0.806,0-1.611,0-2.417,0c-0.796,0-1.592,0-2.388,0c-0.786,0-1.571,0-2.356,0
	c-0.775,0-1.55,0-2.325,0c-0.764,0-1.528,0-2.292,0c-0.752,0-1.505,0-2.257,0c-0.741,0-1.481,0-2.222,0c-0.728,0-1.457,0-2.185,0
	c-0.716,0-1.432,0-2.147,0c-0.703,0-1.405,0-2.108,0c-0.689,0-1.378,0-2.068,0c-0.675,0-1.351,0-2.026,0c-0.662,0-1.323,0-1.984,0
	c-0.647,0-1.294,0-1.941,0c-0.632,0-1.265,0-1.897,0c-0.618,0-1.235,0-1.853,0c-0.603,0-1.206,0-1.808,0c-0.587,0-1.175,0-1.762,0
	c-0.572,0-1.145,0-1.717,0c-0.557,0-1.114,0-1.67,0c-0.542,0-1.083,0-1.625,0c-0.526,0-1.052,0-1.578,0c-0.511,0-1.022,0-1.533,0
	c-0.496,0-0.991,0-1.487,0c-0.48,0-0.961,0-1.442,0c-0.466,0-0.932,0-1.398,0c-0.452,0-0.903,0-1.354,0c-0.438,0-0.875,0-1.313,0
	c-0.424,0-0.848,0-1.271,0c-0.411,0-0.821,0-1.232,0c-0.398,0-0.796,0-1.194,0c-0.386,0-0.772,0-1.158,0c-0.375,0-0.749,0-1.124,0
	c-0.364,0-0.727,0-1.091,0c-0.354,0-0.708,0-1.061,0c-0.344,0-0.688,0-1.033,0c-0.336,0-0.672,0-1.008,0c-0.328,0-0.656,0-0.985,0
	c-0.321,0-0.643,0-0.964,0.001c-0.316,0-0.631,0-0.947,0c-0.311,0-0.622,0-0.933,0c-0.307,0-0.614,0-0.921,0
	c-0.304,0-0.608,0-0.912,0c-1.605,0-3.21,0.235-4.816,0.154c-0.689-0.035-1.354-0.203-2.027-0.342
	c-1.049-0.216-1.954-0.488-2.734-1.261C89.33,480.213,89.037,479.832,88.781,479.422z M225.599,383.469l0.067,36.865
	c-0.75,8.833,5.021,19.291,5.021,19.291L250.75,467c2.063,4.688,6.129,5.532,6.129,5.532l87.704-0.032c5.916,0.5,6.167-5,6.167-5
	l2.417-16.083c0.334-2.25,3-26.011,3-26.011l0.583-53.656l-0.521-24.854c-0.25-3.5-2.146-5.313-2.146-5.313
	c-2.229-3.854-7.833-2.958-7.833-2.958c-8.5,2.125-7,9.875-7,9.875v15.125c0,11.25-2.875,10-2.875,10
	C328,377.5,328.5,365.25,328.5,365.25l0.5-26.563c0.031-5.094-1.833-7.688-1.833-7.688c-2.166-4.25-8.667-3.5-8.667-3.5
	c-8.167,2.333-6.667,12.083-6.667,12.083l-0.416,23.667c-0.416,5.25-3.75,5.167-3.75,5.167c-4.666,1.417-5.814-4.5-5.814-4.5
	l-0.186-28.75c0.917-7.166-1.854-10.01-1.854-10.01c-3.458-4.104-9.125-3-9.125-3c-6.271,1.646-6.229,9.738-6.229,9.738L284.333,336
	v22.167c-0.834,6.5-6.583,4.667-6.583,4.667c-4.583-1.5-3.222-9.001-3.222-9.001L274.5,281.58c0.25-8.5-1.25-10.333-1.25-10.333
	c-3.417-5.417-8.333-4.417-8.333-4.417c-8.25,1.416-7.61,9.334-7.61,9.334v26.461l-0.015,107.361
	c0.125,4.375-0.598,6.181-0.598,6.181c-1.41,4.479-5.402,3.459-5.402,3.459c-4.563-0.5-4.136-8.407-4.136-8.407
	S247,386.5,247,384.75s-0.667-4.25-0.667-4.25c-1.583-6.594-7.917-7.417-7.917-7.417c-8.698-1.364-11.542,5.854-11.542,5.854
	C226.219,380.459,225.599,383.469,225.599,383.469z"/>
</svg>
