<?xml version="1.0" encoding="utf-8"?>
<!-- Generator: Adobe Illustrator 16.0.0, SVG Export Plug-In . SVG Version: 6.00 Build 0)  -->
<!DOCTYPE svg PUBLIC "-//W3C//DTD SVG 1.1//EN" "http://www.w3.org/Graphics/SVG/1.1/DTD/svg11.dtd">
<svg version="1.1" id="Layer_1" xmlns="http://www.w3.org/2000/svg" xmlns:xlink="http://www.w3.org/1999/xlink" x="0px" y="0px"
	 width="250px" height="250px" viewBox="0 0 250 250" enable-background="new 0 0 250 250" xml:space="preserve">
<path fill="#515151" d="M125.185,14.235c39.202,0,78.383,0,117.581,0c4.737,0,5.058,0.325,5.058,5.159c0,58.079,0,116.172,0,174.252
	c0,4.739-0.188,4.928-4.845,4.928c-31.576,0-63.152,0.042-94.719-0.063c-2.988-0.03-3.904,0.761-3.688,3.708
	c0.251,3.533,0.125,7.086,0.016,10.637c-0.076,1.783,0.465,2.361,2.328,2.361c4.074,0.021,8.152-0.527,12.168,0.588
	c6.882,1.896,12.413,8.329,13.033,15.186c0.345,4.119-0.184,4.775-4.303,4.775c-26.211,0-52.375,0-78.585,0
	c-2.694,0-5.366-0.021-8.07,0c-2.405,0.041-3.407-1.031-3.363-3.531c0.208-8.782,7.99-16.711,16.985-17.034
	c2.787-0.093,5.599-0.093,8.381,0c1.562,0.054,2.329-0.28,2.28-2.081c-0.135-4.092-0.113-8.159-0.025-12.242
	c0.052-1.859-0.625-2.365-2.417-2.355c-6.975,0.097-13.96,0.055-20.934,0.055c-25.013,0-50.038,0-75.056,0
	c-4.558,0-4.808-0.239-4.808-4.646C2.177,135.725,2.177,77.543,2.177,19.344c0-4.811,0.329-5.109,5.115-5.109
	C46.598,14.235,85.883,14.235,125.185,14.235z M124.871,193.93c38.119,0,76.238-0.055,114.346,0.07c2.943,0,3.918-0.49,3.896-3.74
	c-0.119-56.035-0.107-112.055,0-168.126c0-2.836-0.969-3.227-3.479-3.227c-76.447,0.071-152.865,0.071-229.322,0
	c-2.625-0.021-3.401,0.581-3.401,3.302c0.099,56.149,0.099,112.289,0,168.447c0,2.621,0.563,3.354,3.302,3.354
	C48.438,193.875,86.649,193.93,124.871,193.93z M125.028,231.046c13.199,0,26.389-0.073,39.556,0.052
	c2.584,0.021,2.959-0.76,1.984-2.937c-2.418-5.283-6.569-8.241-12.318-8.283c-19.512-0.146-39.024-0.146-58.559,0
	c-5.459,0.042-9.594,2.74-11.986,7.783c-1.504,3.176-1.369,3.385,2.069,3.385C98.869,231.046,111.949,231.046,125.028,231.046z
	 M124.841,215.18c4.302,0,8.595-0.072,12.892,0.021c1.662,0.054,2.229-0.386,2.194-2.114c-0.147-4.178-0.095-8.375-0.032-12.553
	c0.047-1.573-0.49-2.012-2.021-2.012c-8.567,0.084-17.168,0.084-25.737,0c-1.531,0-2.046,0.47-2.021,2.021
	c0.1,4.188,0.11,8.364,0,12.542c-0.078,1.74,0.537,2.168,2.183,2.114C116.476,215.107,120.663,215.18,124.841,215.18z"/>
<path fill="none" d="M124.871,193.93c-38.222,0-76.434-0.055-114.646,0.07c-2.746,0-3.303-0.729-3.303-3.354
	c0.094-56.136,0.094-112.292,0-168.441c0-2.722,0.771-3.324,3.396-3.302c76.456,0.07,152.88,0.07,229.316,0
	c2.53,0,3.478,0.396,3.478,3.227c-0.103,56.056-0.112,112.095,0,168.131c0.033,3.235-0.963,3.74-3.889,3.74
	C201.109,193.875,162.99,193.93,124.871,193.93z M125.028,187.552c35.64,0,71.277,0,106.933,0c4.646,0,4.786-0.12,4.786-4.907
	c0.017-50.691,0.017-101.352,0.017-152.057c0-5.228-0.13-5.365-5.475-5.365c-70.977,0-141.941,0-212.912,0
	c-4.907,0-5.115,0.229-5.115,5.068c0,50.785,0,101.568,0,152.354c0,4.777,0.13,4.907,4.808,4.907
	C53.734,187.552,89.358,187.552,125.028,187.552z"/>
<path fill="#515151" d="M125.028,187.552c-35.67,0-71.294,0-106.958,0c-4.678,0-4.808-0.12-4.808-4.907
	c0-50.779,0-101.563,0-152.348c0-4.834,0.208-5.069,5.115-5.069c70.971,0,141.938,0,212.912,0c5.345,0,5.475,0.139,5.475,5.365
	c0,50.69,0,101.37-0.017,152.063c0,4.781-0.14,4.906-4.786,4.906C196.307,187.552,160.668,187.552,125.028,187.552z
	 M125.002,182.938c34.665,0,69.346-0.033,104.012,0.052c2.275,0,3.094-0.345,3.094-2.904c-0.1-49.069-0.1-98.129,0-147.175
	c0-2.506-0.724-2.949-3.053-2.949c-69.24,0.067-138.484,0.067-207.725-0.023c-3.005-0.021-3.396,0.93-3.396,3.581
	c0.074,48.74,0.074,97.465-0.026,146.221c0,2.775,0.787,3.261,3.401,3.25C55.87,182.895,90.441,182.938,125.002,182.938z"/>
<path fill="#515151" d="M104.724,102.283C91.437,92.058,78.701,82.257,65.949,72.428c-1.791-1.37-3.604-2.693-5.345-4.134
	c-2.49-2.044-2.344-3.623,0.605-5.067c8.844-4.297,18.069-4.993,27.054-0.998c13.293,5.898,26.326,12.408,39.473,18.658
	c3.97,1.884,7.984,3.649,11.865,5.711c2.322,1.234,4.239,1.282,6.605,0.12c7.313-3.531,14.729-6.896,22.156-10.198
	c8.086-3.603,16.404-3.719,24.807-1.276c1.666,0.487,3.219,1.185,4.637,2.208c4.905,3.531,4.756,8.876-0.74,11.383
	c-7.002,3.204-14.246,5.855-21.42,8.661c-27.002,10.574-54.016,21.096-81.014,31.689c-9.006,3.532-16.98,2.15-24.063-4.458
	c-5.09-4.763-10.299-9.43-15.415-14.193c-2.807-2.577-2.458-3.559,0.678-5.859c4.813-3.531,9.672-4.153,15.428-2.554
	c6.365,1.787,13.001,2.625,19.519,3.969C95.946,107.164,99.708,103.632,104.724,102.283z M83.257,79.609
	c1.094,0.927,1.861,1.625,2.667,2.255c7.063,5.435,14.121,10.822,21.175,16.312c2.927,2.297,3.573,5.878,0.926,7.223
	c-5.687,2.927-11.266,6.784-18.349,5.273c-7.434-1.578-14.966-2.79-22.352-4.582c-3.137-0.742-5.246,0.256-7.709,2.118
	c4.725,4.342,9.313,8.384,13.684,12.613c5.902,5.708,12.402,6.856,20.049,3.832c25.883-10.22,51.806-20.281,77.71-30.41
	c7.852-3.086,15.727-6.155,23.523-9.386c2.579-1.067,2.559-2.229,0.214-3.74c-0.88-0.555-1.886-1.018-2.905-1.323
	c-7.429-2.113-14.795-2.113-21.951,1.165c-7.5,3.411-15.002,6.805-22.444,10.383c-3.162,1.512-5.986,1.462-9.146-0.095
	c-11.527-5.642-23.165-11.106-34.739-16.635c-1.136-0.555-2.089-1.211-3.573-0.651C94.619,75.889,89.159,77.634,83.257,79.609z
	 M95.062,70.663c-9.309-5.365-18.471-8.434-29.228-4.25c4.261,3.252,8.131,6.225,12.013,9.222c0.813,0.623,1.583,0.297,2.396,0.015
	C84.998,74.032,89.764,72.449,95.062,70.663z"/>
<path fill="#515151" d="M128.236,154.57c-23.21,0-46.39,0-69.606,0c-0.859,0-1.714,0.051-2.552-0.043
	c-1.464-0.166-2.496-0.959-2.417-2.471c0.047-1.353,0.953-2.113,2.339-2.176c0.75-0.043,1.49-0.043,2.261-0.043
	c46.598,0,93.202-0.029,139.825,0.012c1.909,0,4.956-0.99,4.857,2.438c-0.105,2.988-2.875,2.26-4.805,2.26
	C174.836,154.59,151.529,154.57,128.236,154.57z"/>
<path fill="#F15A23" d="M95.062,70.663c-5.297,1.787-10.063,3.37-14.819,4.993c-0.813,0.281-1.583,0.608-2.396-0.016
	c-3.881-3.002-7.751-5.975-12.013-9.222C76.59,62.229,85.753,65.297,95.062,70.663z"/>
</svg>
